<?xml version="1.0" encoding="UTF-8" standalone="no"?>
<!-- Created with Inkscape (http://www.inkscape.org/) -->

<svg
   width="210mm"
   height="297mm"
   viewBox="0 0 210 297"
   version="1.1"
   id="svg1"
   xml:space="preserve"
   inkscape:version="1.3 (0e150ed6c4, 2023-07-21)"
   sodipodi:docname="rotten - ninja.svg"
   inkscape:export-filename="rotten - ninja.png"
   inkscape:export-xdpi="96"
   inkscape:export-ydpi="96"
   xmlns:inkscape="http://www.inkscape.org/namespaces/inkscape"
   xmlns:sodipodi="http://sodipodi.sourceforge.net/DTD/sodipodi-0.dtd"
   xmlns="http://www.w3.org/2000/svg"
   xmlns:svg="http://www.w3.org/2000/svg"><sodipodi:namedview
     id="namedview1"
     pagecolor="#505050"
     bordercolor="#eeeeee"
     borderopacity="1"
     inkscape:showpageshadow="0"
     inkscape:pageopacity="0"
     inkscape:pagecheckerboard="0"
     inkscape:deskcolor="#505050"
     inkscape:document-units="mm"
     inkscape:zoom="0.73139029"
     inkscape:cx="332.92758"
     inkscape:cy="509.304"
     inkscape:window-width="1920"
     inkscape:window-height="1017"
     inkscape:window-x="-8"
     inkscape:window-y="-8"
     inkscape:window-maximized="1"
     inkscape:current-layer="layer2" /><defs
     id="defs1"><inkscape:path-effect
       effect="fillet_chamfer"
       id="path-effect9"
       is_visible="true"
       lpeversion="1"
       nodesatellites_param="F,0,0,1,0,0,0,1 @ F,0,0,1,0,0,0,1 @ F,0,0,1,0,0,0,1 @ F,0,0,1,0,0,0,1 @ F,0,0,1,0,0,0,1 @ F,0,0,1,0,0,0,1 @ F,0,0,1,0,0,0,1 @ F,0,0,1,0,0,0,1 @ F,0,0,1,0,0,0,1 @ F,0,0,1,0,0,0,1 @ F,0,0,1,0,0,0,1 @ F,0,0,1,0,0,0,1 @ F,0,0,1,0,0,0,1 @ F,0,0,1,0,0,0,1 @ F,0,0,1,0,0,0,1 @ F,0,0,1,0,0,0,1 @ F,0,0,1,0,0,0,1 @ F,0,0,1,0,0,0,1 @ F,0,0,1,0,0,0,1 @ F,0,0,1,0,0,0,1 @ F,0,0,1,0,0,0,1 @ F,0,0,1,0,0,0,1 @ F,0,0,1,0,0,0,1 @ F,0,0,1,0,0,0,1 @ F,0,0,1,0,0,0,1 @ F,0,0,1,0,0,0,1 @ F,0,0,1,0,0,0,1 @ F,0,0,1,0,0,0,1 @ F,0,0,1,0,0,0,1 @ F,0,0,1,0,0,0,1 @ F,0,0,1,0,0,0,1 @ F,0,0,1,0,0,0,1 @ F,0,0,1,0,0,0,1 @ F,0,0,1,0,0,0,1 @ F,0,0,1,0,0,0,1 @ F,0,0,1,0,0,0,1 @ F,0,0,1,0,0,0,1 @ F,0,0,1,0,0,0,1 @ F,0,0,1,0,0,0,1 @ F,0,0,1,0,0,0,1 @ F,0,0,1,0,0,0,1 @ F,0,0,1,0,0,0,1 @ F,0,0,1,0,0,0,1 @ F,0,0,1,0,0,0,1 @ F,0,0,1,0,0,0,1 @ F,0,0,1,0,0,0,1 @ F,0,0,1,0,0,0,1 @ F,0,0,1,0,0,0,1 @ F,0,0,1,0,0,0,1 @ F,0,0,1,0,0,0,1 @ F,0,0,1,0,0,0,1 @ F,0,0,1,0,0,0,1 @ F,0,0,1,0,0,0,1 @ F,0,0,1,0,0,0,1 @ F,0,0,1,0,0,0,1 @ F,0,0,1,0,0,0,1 @ F,0,0,1,0,0,0,1 @ F,0,0,1,0,0,0,1 @ F,0,0,1,0,0,0,1 @ F,0,0,1,0,0,0,1 @ F,0,0,1,0,0,0,1 @ F,0,0,1,0,0,0,1 @ F,0,0,1,0,0,0,1 @ F,0,0,1,0,0,0,1 @ F,0,0,1,0,0,0,1 @ F,0,0,1,0,0,0,1 @ F,0,0,1,0,0,0,1 @ F,0,0,1,0,0,0,1 @ F,0,0,1,0,0,0,1 @ F,0,0,1,0,0,0,1 @ F,0,0,1,0,0,0,1 @ F,0,0,1,0,0,0,1 @ F,0,0,1,0,0,0,1 @ F,0,0,1,0,0,0,1 @ F,0,0,1,0,0,0,1 @ F,0,0,1,0,0,0,1 @ F,0,0,1,0,0,0,1 @ F,0,0,1,0,0,0,1 @ F,0,0,1,0,0,0,1 @ F,0,0,1,0,0,0,1 @ F,0,0,1,0,0,0,1 @ F,0,0,1,0,0,0,1 @ F,0,0,1,0,0,0,1 @ F,0,0,1,0,0,0,1 @ F,0,0,1,0,0,0,1 @ F,0,0,1,0,0,0,1 @ F,0,0,1,0,0,0,1 @ F,0,0,1,0,0,0,1 @ F,0,0,1,0,0,0,1 @ F,0,0,1,0,0,0,1 @ F,0,0,1,0,0,0,1 @ F,0,0,1,0,0,0,1 @ F,0,0,1,0,0,0,1 @ F,0,0,1,0,0,0,1 @ F,0,0,1,0,0,0,1 @ F,0,0,1,0,0,0,1 @ F,0,0,1,0,0,0,1 @ F,0,0,1,0,0,0,1 @ F,0,0,1,0,0,0,1 @ F,0,0,1,0,0,0,1 @ F,0,0,1,0,0,0,1 @ F,0,0,1,0,0,0,1 @ F,0,0,1,0,0,0,1 @ F,0,0,1,0,0,0,1 @ F,0,0,1,0,0,0,1 @ F,0,0,1,0,0,0,1 @ F,0,0,1,0,0,0,1 @ F,0,0,1,0,0,0,1 @ F,0,0,1,0,0,0,1 @ F,0,0,1,0,0,0,1 @ F,0,0,1,0,0,0,1 @ F,0,0,1,0,0,0,1 @ F,0,0,1,0,0,0,1 @ F,0,0,1,0,0,0,1 @ F,0,0,1,0,0,0,1 @ F,0,0,1,0,0,0,1 | F,0,0,1,0,0,0,1 @ F,0,0,1,0,0,0,1 @ F,0,0,1,0,0,0,1 @ F,0,0,1,0,0,0,1 @ F,0,0,1,0,0,0,1 @ F,0,0,1,0,0,0,1 @ F,0,0,1,0,0,0,1 @ F,0,0,1,0,0,0,1 @ F,0,0,1,0,0,0,1 @ F,0,0,1,0,0,0,1 @ F,0,0,1,0,0,0,1 @ F,0,0,1,0,0,0,1 @ F,0,0,1,0,0,0,1 @ F,0,0,1,0,0,0,1 @ F,0,0,1,0,0,0,1 @ F,0,0,1,0,0,0,1 @ F,0,0,1,0,0,0,1 @ F,0,0,1,0,0,0,1 @ F,0,0,1,0,0,0,1 | F,0,0,1,0,0,0,1 @ F,0,0,1,0,0,0,1 @ F,0,0,1,0,0,0,1 @ F,0,0,1,0,0,0,1 @ F,0,0,1,0,0,0,1 @ F,0,0,1,0,0,0,1 @ F,0,0,1,0,0,0,1 @ F,0,0,1,0,0,0,1 @ F,0,0,1,0,0,0,1 @ F,0,0,1,0,0,0,1 @ F,0,0,1,0,0,0,1 @ F,0,0,1,0,0,0,1 @ F,0,0,1,0,0,0,1 @ F,0,0,1,0,0,0,1 @ F,0,0,1,0,0,0,1 @ F,0,0,1,0,0,0,1 @ F,0,0,1,0,0,0,1 @ F,0,0,1,0,0,0,1 | F,0,0,1,0,0,0,1 @ F,0,0,1,0,0,0,1 @ F,0,0,1,0,0,0,1 @ F,0,0,1,0,0,0,1 @ F,0,0,1,0,0,0,1 @ F,0,0,1,0,0,0,1 @ F,0,0,1,0,0,0,1 @ F,0,0,1,0,0,0,1 @ F,0,0,1,0,0,0,1 @ F,0,0,1,0,0,0,1 @ F,0,0,1,0,0,0,1 @ F,0,0,1,0,0,0,1 @ F,0,0,1,0,0,0,1 @ F,0,0,1,0,0,0,1 @ F,0,0,1,0,0,0,1 @ F,0,0,1,0,0,0,1 @ F,0,0,1,0,0,0,1 @ F,0,0,1,0,0,0,1 @ F,0,0,1,0,0,0,1 @ F,0,0,1,0,0,0,1 @ F,0,0,1,0,0,0,1 @ F,0,0,1,0,0,0,1 @ F,0,0,1,0,0,0,1 @ F,0,0,1,0,0,0,1 @ F,0,0,1,0,0,0,1 @ F,0,0,1,0,0,0,1 @ F,0,0,1,0,0,0,1 @ F,0,0,1,0,0,0,1 @ F,0,0,1,0,0,0,1 @ F,0,0,1,0,0,0,1 @ F,0,0,1,0,0,0,1 @ F,0,0,1,0,0,0,1 @ F,0,0,1,0,0,0,1 @ F,0,0,1,0,0,0,1 @ F,0,0,1,0,0,0,1 @ F,0,0,1,0,0,0,1 @ F,0,0,1,0,0,0,1 @ F,0,0,1,0,0,0,1 @ F,0,0,1,0,0,0,1 @ F,0,0,1,0,0,0,1 @ F,0,0,1,0,0,0,1 | F,0,0,1,0,0,0,1 @ F,0,0,1,0,0,0,1 @ F,0,0,1,0,0,0,1 @ F,0,0,1,0,0,0,1 | F,0,0,1,0,0,0,1 @ F,0,0,1,0,0,0,1 @ F,0,0,1,0,0,0,1 @ F,0,0,1,0,0,0,1 @ F,0,0,1,0,0,0,1 @ F,0,0,1,0,0,0,1 @ F,0,0,1,0,0,0,1 @ F,0,0,1,0,0,0,1 @ F,0,0,1,0,0,0,1 @ F,0,0,1,0,0,0,1 @ F,0,0,1,0,0,0,1 @ F,0,0,1,0,0,0,1 @ F,0,0,1,0,0,0,1 @ F,0,0,1,0,0,0,1 @ F,0,0,1,0,0,0,1 @ F,0,0,1,0,0,0,1 @ F,0,0,1,0,0,0,1 @ F,0,0,1,0,0,0,1 @ F,0,0,1,0,0,0,1 @ F,0,0,1,0,0,0,1 @ F,0,0,1,0,0,0,1 @ F,0,0,1,0,0,0,1 @ F,0,0,1,0,0,0,1 @ F,0,0,1,0,0,0,1 @ F,0,0,1,0,0,0,1 @ F,0,0,1,0,0,0,1 @ F,0,0,1,0,0,0,1 @ F,0,0,1,0,0,0,1 @ F,0,0,1,0,0,0,1 | F,0,0,1,0,0,0,1 @ F,0,0,1,0,0,0,1 @ F,0,0,1,0,0,0,1 @ F,0,0,1,0,0,0,1 @ F,0,0,1,0,0,0,1 @ F,0,0,1,0,0,0,1 @ F,0,0,1,0,0,0,1 @ F,0,0,1,0,0,0,1 @ F,0,0,1,0,0,0,1 @ F,0,0,1,0,0,0,1 @ F,0,0,1,0,0,0,1 @ F,0,0,1,0,0,0,1 @ F,0,0,1,0,0,0,1 @ F,0,0,1,0,0,0,1 @ F,0,0,1,0,0,0,1 @ F,0,0,1,0,0,0,1 @ F,0,0,1,0,0,0,1 @ F,0,0,1,0,0,0,1 | F,0,0,1,0,0,0,1 @ F,0,0,1,0,0,0,1 @ F,0,0,1,0,0,0,1 @ F,0,0,1,0,0,0,1 @ F,0,0,1,0,0,0,1 @ F,0,0,1,0,0,0,1 @ F,0,0,1,0,0,0,1 @ F,0,0,1,0,0,0,1 @ F,0,0,1,0,0,0,1 @ F,0,0,1,0,0,0,1 @ F,0,0,1,0,0,0,1 @ F,0,0,1,0,0,0,1 @ F,0,0,1,0,0,0,1 @ F,0,0,1,0,0,0,1 @ F,0,0,1,0,0,0,1 @ F,0,0,1,0,0,0,1 @ F,0,0,1,0,0,0,1 @ F,0,0,1,0,0,0,1 @ F,0,0,1,0,0,0,1 @ F,0,0,1,0,0,0,1 @ F,0,0,1,0,0,0,1 @ F,0,0,1,0,0,0,1 @ F,0,0,1,0,0,0,1 @ F,0,0,1,0,0,0,1 @ F,0,0,1,0,0,0,1 @ F,0,0,1,0,0,0,1 @ F,0,0,1,0,0,0,1 @ F,0,0,1,0,0,0,1 @ F,0,0,1,0,0,0,1 @ F,0,0,1,0,0,0,1 @ F,0,0,1,0,0,0,1 @ F,0,0,1,0,0,0,1 @ F,0,0,1,0,0,0,1 @ F,0,0,1,0,0,0,1 @ F,0,0,1,0,0,0,1 @ F,0,0,1,0,0,0,1 @ F,0,0,1,0,0,0,1 @ F,0,0,1,0,0,0,1 @ F,0,0,1,0,0,0,1 @ F,0,0,1,0,0,0,1 @ F,0,0,1,0,0,0,1 @ F,0,0,1,0,0,0,1 @ F,0,0,1,0,0,0,1 @ F,0,0,1,0,0,0,1 @ F,0,0,1,0,0,0,1 @ F,0,0,1,0,0,0,1 @ F,0,0,1,0,0,0,1 @ F,0,0,1,0,0,0,1 @ F,0,0,1,0,0,0,1 @ F,0,0,1,0,0,0,1 @ F,0,0,1,0,0,0,1 @ F,0,0,1,0,0,0,1 @ F,0,0,1,0,0,0,1 @ F,0,0,1,0,0,0,1 @ F,0,0,1,0,0,0,1 @ F,0,0,1,0,0,0,1 @ F,0,0,1,0,0,0,1 @ F,0,0,1,0,0,0,1 @ F,0,0,1,0,0,0,1 @ F,0,0,1,0,0,0,1 @ F,0,0,1,0,0,0,1 @ F,0,0,1,0,0,0,1 @ F,0,0,1,0,0,0,1 @ F,0,0,1,0,0,0,1 @ F,0,0,1,0,0,0,1 @ F,0,0,1,0,0,0,1 | F,0,0,1,0,0,0,1 @ F,0,0,1,0,0,0,1 @ F,0,0,1,0,0,0,1 @ F,0,0,1,0,0,0,1 | F,0,0,1,0,0,0,1 @ F,0,0,1,0,0,0,1 @ F,0,0,1,0,0,0,1 | F,0,0,1,0,0,0,1 @ F,0,0,1,0,0,0,1 @ F,0,0,1,0,0,0,1 @ F,0,0,1,0,0,0,1 @ F,0,0,1,0,0,0,1 @ F,0,0,1,0,0,0,1 | F,0,0,1,0,0,0,1 @ F,0,0,1,0,0,0,1 @ F,0,0,1,0,0,0,1 @ F,0,0,1,0,0,0,1 | F,0,0,1,0,0,0,1 @ F,0,0,1,0,0,0,1 @ F,0,0,1,0,0,0,1 @ F,0,0,1,0,0,0,1 | F,0,0,1,0,0,0,1 @ F,0,0,1,0,0,0,1 @ F,0,0,1,0,0,0,1 @ F,0,0,1,0,0,0,1 @ F,0,0,1,0,0,0,1 @ F,0,0,1,0,0,0,1 @ F,0,0,1,0,0,0,1 @ F,0,0,1,0,0,0,1 @ F,0,0,1,0,0,0,1 @ F,0,0,1,0,0,0,1 @ F,0,0,1,0,0,0,1 @ F,0,0,1,0,0,0,1 @ F,0,0,1,0,0,0,1 @ F,0,0,1,0,0,0,1 @ F,0,0,1,0,0,0,1 @ F,0,0,1,0,0,0,1 @ F,0,0,1,0,0,0,1 @ F,0,0,1,0,0,0,1 @ F,0,0,1,0,0,0,1 @ F,0,0,1,0,0,0,1 @ F,0,0,1,0,0,0,1 @ F,0,0,1,0,0,0,1 @ F,0,0,1,0,0,0,1 @ F,0,0,1,0,0,0,1 @ F,0,0,1,0,0,0,1 @ F,0,0,1,0,0,0,1 @ F,0,0,1,0,0,0,1 @ F,0,0,1,0,0,0,1 @ F,0,0,1,0,0,0,1 @ F,0,0,1,0,0,0,1 @ F,0,0,1,0,0,0,1 @ F,0,0,1,0,0,0,1 @ F,0,0,1,0,0,0,1 | F,0,0,1,0,0,0,1 @ F,0,0,1,0,0,0,1 @ F,0,0,1,0,0,0,1 @ F,0,0,1,0,0,0,1 | F,0,0,1,0,0,0,1 @ F,0,0,1,0,0,0,1 @ F,0,0,1,0,0,0,1 @ F,0,0,1,0,0,0,1 @ F,0,0,1,0,0,0,1 @ F,0,0,1,0,0,0,1 @ F,0,0,1,0,0,0,1 @ F,0,0,1,0,0,0,1 @ F,0,0,1,0,0,0,1 @ F,0,0,1,0,0,0,1 @ F,0,0,1,0,0,0,1 @ F,0,0,1,0,0,0,1 | F,0,0,1,0,0,0,1 @ F,0,0,1,0,0,0,1 @ F,0,0,1,0,0,0,1 @ F,0,0,1,0,0,0,1 @ F,0,0,1,0,0,0,1 @ F,0,0,1,0,0,0,1 @ F,0,0,1,0,0,0,1 @ F,0,0,1,0,0,0,1 @ F,0,0,1,0,0,0,1 @ F,0,0,1,0,0,0,1 @ F,0,0,1,0,0,0,1 @ F,0,0,1,0,0,0,1 @ F,0,0,1,0,0,0,1 | F,0,0,1,0,0,0,1 @ F,0,0,1,0,0,0,1 @ F,0,0,1,0,0,0,1 @ F,0,0,1,0,0,0,1 @ F,0,0,1,0,0,0,1 | F,0,0,1,0,0,0,1 @ F,0,0,1,0,0,0,1 @ F,0,0,1,0,0,0,1 @ F,0,0,1,0,0,0,1 | F,0,0,1,0,0,0,1 @ F,0,0,1,0,0,0,1 @ F,0,0,1,0,0,0,1 @ F,0,0,1,0,0,0,1 @ F,0,0,1,0,0,0,1 @ F,0,0,1,0,0,0,1 @ F,0,0,1,0,0,0,1 @ F,0,0,1,0,0,0,1 @ F,0,0,1,0,0,0,1 | F,0,0,1,0,0,0,1 @ F,0,0,1,0,0,0,1 @ F,0,0,1,0,0,0,1 | F,0,0,1,0,0,0,1 @ F,0,0,1,0,0,0,1 @ F,0,0,1,0,0,0,1 @ F,0,0,1,0,0,0,1 @ F,0,0,1,0,0,0,1 @ F,0,0,1,0,0,0,1 @ F,0,0,1,0,0,0,1 @ F,0,0,1,0,0,0,1 @ F,0,0,1,0,0,0,1 @ F,0,0,1,0,0,0,1 | F,0,0,1,0,0,0,1 @ F,0,0,1,0,0,0,1 @ F,0,0,1,0,0,0,1 @ F,0,0,1,0,0,0,1 @ F,0,0,1,0,0,0,1 @ F,0,0,1,0,0,0,1 @ F,0,0,1,0,0,0,1 @ F,0,0,1,0,0,0,1 @ F,0,0,1,0,0,0,1 @ F,0,0,1,0,0,0,1 @ F,0,0,1,0,0,0,1 @ F,0,0,1,0,0,0,1 @ F,0,0,1,0,0,0,1 @ F,0,0,1,0,0,0,1 @ F,0,0,1,0,0,0,1 @ F,0,0,1,0,0,0,1 @ F,0,0,1,0,0,0,1 @ F,0,0,1,0,0,0,1 @ F,0,0,1,0,0,0,1 @ F,0,0,1,0,0,0,1"
       radius="0"
       unit="px"
       method="auto"
       mode="F"
       chamfer_steps="1"
       flexible="false"
       use_knot_distance="true"
       apply_no_radius="true"
       apply_with_radius="true"
       only_selected="false"
       hide_knots="false" /></defs><g
     inkscape:label="Layer 1"
     inkscape:groupmode="layer"
     id="layer1"
     style="display:none"><path
       style="display:inline;fill:#000000;fill-opacity:1"
       d="m 72.86493,139.66365 c -3.541427,-1.00306 -6.641043,-2.13394 -10.225263,-4.16828 -10.22265,-5.8022 -18.574006,-12.20009 -25.295686,-22.1918 -2.44337,-3.63205 -6.056,-10.71886 -7.57237,-14.854532 -3.36813,-9.18609 -5.12595,-21.40296 -4.49218,-31.22084 0.12681,-1.96453 0.23572,-3.95882 0.24202,-4.43177 l 0.0114,-0.85989 h -1.55509 c -1.13262,0 -1.65376,0.12024 -1.91823,0.4426 -0.19972,0.24343 -1.6614,1.61265 -3.24818,3.04271 l -2.88505,2.6001 h -5.40144 -5.4014396 l 4.31774,-4.18867 c 2.3747596,-2.30376 5.5678996,-5.39124 7.0958696,-6.86105 l 2.77812,-2.67238 1.87518,-0.17746 c 1.03135,-0.0976 4.30557,-0.13552 7.27604,-0.0843 2.97048,0.0513 9.93383,0.0634 15.47413,0.0271 l 10.07327,-0.0661 7.38923,-4.39746 c 4.06408,-2.418609 7.56357,-4.561729 7.77666,-4.762499 0.32964,-0.3106 -1.80574,-0.36504 -14.31844,-0.36504 h -14.70586 l -1.29198,2.77802 -1.29198,2.778009 -4.6897,1.1e-4 -4.6897,1.1e-4 0.82135,-2.182809 c 0.45175,-1.20055 0.87935,-2.45071 0.95024,-2.77813 l 0.12887,-0.59531 h -5.99407 -5.99407 l -3.23104,2.90817 -3.23105,2.908179 -5.5562496,-0.006 -5.55623996,-0.006 3.16769996,-2.968639 c 1.74224,-1.63276 4.95692,-4.66386 7.1437496,-6.7358 l 3.97604,-3.76715 9.45363,-0.003 9.45363,-0.003 2.12712,-3.175 2.12711,-3.174996 h 5.71572 c 5.40394,0 5.69612,0.0253 5.35662,0.463016 -0.19749,0.25466 -0.96482,1.17739 -1.70516,2.05052 -1.62518,1.91665 -2.49846,3.15628 -2.49846,3.54657 0,0.20651 4.0677,0.28989 14.14277,0.28989 h 14.14277 l 0.27555,-0.99219 c 0.15155,-0.5457 0.27621,-1.16033 0.27702,-1.36584 0.003,-0.83423 1.98499,-6.127966 3.120177,-8.334996 6.272308,-12.194569 19.736658,-19.1954841 34.424932,-17.8995651 9.5945,0.846504 17.14863,4.0687661 24.38312,10.4007671 7.92137,6.933204 13.20449,18.111434 13.28726,28.113694 0.0145,1.74625 -0.11144,3.643409 -0.27975,4.215889 -0.28502,0.96949 -0.23396,1.20092 0.74444,3.3738 0.57775,1.2831 1.05028,2.42205 1.05008,2.53099 -2e-4,0.10894 -1.0716,1.80542 -2.38088,3.76995 l -2.38051,3.57187 -3.7e-4,4.22048 -3.7e-4,4.22047 -3.75897,6.36286 c -6.24274,10.56716 -8.39455,13.93552 -10.31805,16.15146 -1.97427,2.27443 -3.04777,3.05273 -5.81659,4.21712 -2.0564,0.864802 -2.26127,0.839952 -5.47687,-0.66432 -1.22069,-0.57105 -2.36398,-1.03827 -2.54065,-1.03827 -0.33081,0 -2.78221,2.956692 -2.77841,3.351102 0.002,0.24051 5.53296,3.81062 16.26975,10.50236 3.78354,2.35811 7.12579,4.44784 7.42722,4.64384 0.50353,0.32743 0.6573,0.24076 1.89274,-1.06681 7.60811,-8.05229 13.32356,-19.314272 15.65979,-30.856802 1.2049,-5.95298 1.43454,-8.70768 1.27344,-15.27587 -0.10478,-4.27181 -0.29665,-6.70167 -0.71927,-9.10874 -0.61853,-3.52292 -2.05325,-8.59019 -3.04089,-10.74013 -0.45607,-0.992759 -0.64198,-1.983219 -0.74496,-3.968749 -0.3179,-6.12913 -2.71991,-13.95563 -5.91158,-19.261775 -2.51498,-4.181154 -6.79674,-9.068081 -10.63095,-12.133478 -4.16733,-3.331721 -10.28506,-6.4452001 -15.96721,-8.1261491 -4.22367,-1.249486 -7.5999,-1.694335 -12.78625,-1.684701 -3.76754,0.007 -5.03495,0.118433 -7.805204,0.686255 -5.31925,1.090292 -9.57696,2.645867 -13.47824,4.924337 -1.23164,0.7193191 -2.14332,1.0673941 -2.79572,1.0673941 -1.96727,0 -8.388945,2.00418 -11.589215,3.616945 l -1.27256,0.641616 -3.75452,-1.564005 c -2.06499,-0.860203 -4.61773,-1.841744 -5.67276,-2.181203 -1.05502,-0.339458 -1.91823,-0.701782 -1.91823,-0.805164 0,-0.262993 4.68393,-2.6370621 7.54063,-3.8220021 6.17413,-2.560986 14.457855,-4.840626 20.769775,-5.71573402 1.58385,-0.219591 5.1069,-0.344042 9.525,-0.33647 5.851884,0.01003 7.624074,0.107374 10.715634,0.58859402 12.00309,1.868358 22.0992,6.042605 31.32776,12.9524911 3.71878,2.784439 9.94463,8.948675 12.92091,12.793043 8.0945,10.455376 13.1337,23.169335 14.37035,36.256485 0.41665,4.40933 0.19109,15.52209 -0.39129,19.2778 -0.88857,5.73037 -3.36678,14.26108 -5.57252,19.182292 -4.4496,9.92746 -11.80994,18.28453 -19.5823,25.76498 -3.10922,2.99244 -7.98631,5.98414 -10.59908,7.43349 l -2.39701,1.32966 H 108.19597 88.364516 l -1.84862,-2.44199 c -1.01675,-1.34308 -2.74322,-3.51598 -3.83663,-4.82864 -1.0934,-1.31267 -3.65158,-4.47026 -5.684848,-7.01687 -2.033267,-2.54662 -3.951637,-4.92787 -4.263037,-5.29167 -0.31141,-0.3638 -3.04039,-3.63802 -6.06441,-7.27604 -4.44051,-5.34212 -9.90568,-11.715282 -11.6091,-13.537852 -0.21713,-0.23232 -0.83723,-0.0308 -2.50649,0.81439 l -2.21798,1.12307 5.57982,7.387692 c 3.0689,4.06324 6.85926,9.05457 8.42303,11.09187 4.25867,5.54823 13.922307,18.41746 14.453845,19.24843 l 0.46542,0.72761 h -1.725888 c -0.949237,0 -1.109408,-1.64331 -1.129688,-1.60701 -0.0203,0.0364 -0.521165,1.54673 -0.19844,3.29565 l 0.477927,2.59 c 0,0 -2.574292,-0.28364 -3.814497,-0.63491 z m -3.248879,-9.98576 c -0.0165,-0.28664 -0.25497,-0.79266 -0.52991,-1.12448 -1.05773,-1.27656 -1.04038,-1.38649 0.0369,-0.23367 2.19239,2.34618 1.11318,0.36608 -1.72762,-3.16976 -2.04133,-2.54078 -3.00029,-3.53842 -3.37343,-3.50955 -0.50162,0.0388 -1.98812,-1.56357 -3.91581,-4.22112 -0.67176,-0.92609 -0.71601,-1.11083 -0.43091,-1.79912 0.29806,-0.71958 0.24457,-0.853 -0.8644,-2.15607 -0.65017,-0.76397 -1.9951,-2.4606 -2.98875,-3.77028 -2.5428,-3.3516 -6.93251,-8.84122 -7.85027,-9.817302 l -0.77238,-0.82146 -3.15656,1.615212 c -1.73611,0.88837 -3.15827,1.69382 -3.16035,1.78989 -0.002,0.0961 0.50084,0.81045 1.11762,1.5875 0.61678,0.77705 1.75092,2.28752 2.52033,3.35659 3.42614,4.76056 11.91054,13.72022 15.95618,16.84999 1.89598,1.46676 6.83934,4.88466 7.07585,4.89233 0.0998,0.003 0.47909,0.23872 0.84289,0.52329 0.84713,0.66263 1.25851,0.66533 1.22065,0.008 z m 26.467045,-1.26478 c -0.34614,-0.54571 -1.92521,-2.97433 -3.50904,-5.39695 -1.58384,-2.42261 -3.23282,-4.98246 -3.66441,-5.68854 -0.4316,-0.70608 -1.36895,-2.23628 -2.08301,-3.40045 -0.71405,-1.16417 -1.89905,-3.18823 -2.63331,-4.49792 -4.3342,-7.73077 -13.421865,-22.167222 -14.536435,-23.092232 -0.26372,-0.21887 -0.75555,0.11221 -2.0866,1.40464 l -1.74155,1.691 1.21719,0.15643 c 1.28806,0.16554 2.91413,0.77673 2.97074,1.11661 0.0186,0.1115 0.0837,0.44085 0.14466,0.73189 0.061,0.29104 0.17603,1.14957 0.25565,1.90784 0.13015,1.23951 0.0755,1.44289 -0.54153,2.01472 -0.37746,0.34982 -0.68629,0.71925 -0.68629,0.82095 0,0.35575 11.690995,15.255442 14.132005,18.010652 1.0314,1.16417 1.9348,2.1762 2.00756,2.24896 0.35396,0.35395 2.38006,2.68412 3.43959,3.95577 4.63677,5.5651 7.64151,9.00881 7.86043,9.00881 0.046,0 -0.1995,-0.44648 -0.54565,-0.99218 z m 3.04694,-10.83664 c -0.72104,-1.29856 -2.17278,-4.02009 -3.22608,-6.04784 -1.0533,-2.02776 -2.09003,-3.96939 -2.30385,-4.31473 -0.21382,-0.34534 -0.26346,-0.55044 -0.11032,-0.45579 0.34473,0.21305 -1.19671,-3.28426 -4.68978,-10.640452 -1.47264,-3.10129 -2.67753,-5.70876 -2.67753,-5.79438 0,-0.0856 0.37467,0.36821 0.83261,1.0085 0.87835,1.22815 1.96096,2.45766 5.23385,5.944 1.10184,1.17369 2.53912,2.726772 3.19396,3.451272 0.65484,0.72451 2.17092,2.39773 3.36905,3.71826 1.19813,1.32054 2.426174,2.6845 2.728984,3.03102 1.05159,1.20342 0.36394,0.0703 -3.319914,-5.47052 -6.86464,-10.325032 -9.3774,-14.373662 -11.13894,-17.947402 -0.79692,-1.61674 -1.20431,-2.64188 -0.90533,-2.27807 1.00984,1.22874 6.48736,7.06704 6.56922,7.00188 0.10304,-0.082 -1.97685,-4.00401 -2.5907,-4.88522 -0.25343,-0.3638 -1.80648,-2.92364 -3.45122,-5.68855 -1.64475,-2.76489 -3.25648,-5.38427 -3.58162,-5.82083 -0.62536,-0.83964 -1.11634,-1.68814 -2.8324,-4.89479 -0.58408,-1.09141 -1.14056,-2.07396 -1.23663,-2.18344 -0.0961,-0.10949 -0.737618,1.44709 -1.425668,3.45906 l -1.250987,3.65813 1.595577,4.37226 c 0.877568,2.40475 1.595578,4.49341 1.595578,4.64145 0,0.14804 0.64641,1.96736 1.43646,4.04294 0.79006,2.07558 1.34507,3.6691 1.23338,3.54117 -0.4154,-0.47578 -3.14528,-4.52335 -4.146638,-6.14819 -0.57021,-0.92524 -1.24192,-1.99681 -1.492697,-2.38126 -0.25079,-0.38445 -0.76095,-1.26878 -1.13371,-1.96519 l -0.67774,-1.26618 -1.04032,2.05993 -1.04031,2.05995 1.47097,2.64583 c 0.80903,1.45521 1.59645,2.7649 1.74981,2.91042 0.19188,0.18205 0.21273,0.14867 0.0669,-0.10703 -0.13221,-0.23176 -0.10948,-0.30825 0.0604,-0.20326 0.14982,0.0926 0.27372,0.43841 0.27533,0.76849 0.002,0.33007 0.535377,1.4931 1.186147,2.58451 1.807758,3.0318 7.480748,11.458762 9.677118,14.374922 3.70595,4.92045 12.956974,15.86394 13.226404,15.64616 0.0449,-0.0363 -0.508284,-1.12847 -1.229324,-2.42703 z m -11.94922,-13.96801 c 0,-0.0728 0.0595,-0.13229 0.13229,-0.13229 0.0728,0 0.13229,0.0595 0.13229,0.13229 0,0.0728 -0.0595,0.13229 -0.13229,0.13229 -0.0728,0 -0.13229,-0.0595 -0.13229,-0.13229 z M 50.836561,91.414828 c 11.26585,-5.69196 11.31241,-5.71889 13.72674,-7.9393 l 2.42254,-2.22796 2.17502,-4.48365 c 1.38318,-2.85131 2.70215,-6.10162 3.62294,-8.92788 1.80271,-5.53327 3.36712,-11.3726 3.14367,-11.73414 -0.0928,-0.15017 -0.63486,-0.45954 -1.20457,-0.68749 l -1.03583,-0.41446 v -1.85166 c 0,-1.48689 -0.0737,-1.82339 -0.374,-1.70814 -0.20571,0.0789 -1.78328,1.12446 -3.50573,2.32338 -1.72245,1.19893 -3.4975,2.427 -3.94455,2.72906 -0.44705,0.30206 -1.175,1.14451 -1.61767,1.87211 -4.1733,6.85955 -8.36057,13.61797 -9.5445,15.40518 -1.26408,1.90821 -1.62533,2.26187 -2.93533,2.87363 -1.22818,0.57355 -10.99496,4.85494 -12.14332,5.32317 -0.25692,0.10476 -0.33073,-0.87048 -0.33073,-4.3695 v -4.50434 l 1.25677,-0.46541 c 0.69122,-0.25598 2.47728,-0.95918 3.96901,-1.56267 l 2.71223,-1.09725 2.78701,-3.94932 2.78701,-3.94932 -8.65734,-0.0698 c -4.76153,-0.0384 -8.74766,0.0211 -8.85807,0.1323 -0.48095,0.48426 -0.82547,6.45988 -0.68143,11.81942 0.20962,7.8 0.91838,11.95281 3.28896,19.27082 0.69496,2.14535 1.34757,3.90152 1.45026,3.90261 0.10269,0.001 5.2736,-2.56812 11.49091,-5.70936 z m 73.856489,3.35149 c 0.83259,-0.4248 1.74281,-0.94431 2.0227,-1.15447 0.49129,-0.36891 0.48215,-0.39914 -0.26459,-0.87439 -0.42541,-0.27074 -1.07113,-0.76074 -1.43493,-1.08888 -0.80252,-0.72386 -9.92909,-6.89225 -13.69859,-9.25848 -1.49597,-0.93907 -2.85044,-1.66391 -3.00992,-1.61075 -0.15949,0.0532 1.15842,1.32396 2.92867,2.82398 1.77025,1.50003 3.40528,3.01217 3.63339,3.36031 0.22811,0.34814 0.51943,0.56829 0.64736,0.48922 0.12794,-0.0791 0.17426,0.0112 0.10293,0.20071 -0.11886,0.31573 1.54522,2.40605 1.76127,2.21241 0.0518,-0.0465 0.35326,0.31276 0.66981,0.79829 0.56057,0.85983 0.51619,0.84352 -1.70642,-0.62713 -2.21741,-1.46722 -12.72563,-8.87569 -16.728504,-11.79388 -3.50564,-2.5557 -11.46821,-7.83708 -11.60679,-7.6985 -0.33562,0.33562 7.91299,8.59161 11.07763,11.08754 4.369604,3.44626 12.007224,8.19823 17.989314,11.19257 2.98189,1.49259 5.57489,2.7138 5.76223,2.7138 0.18735,0 1.02184,-0.34756 1.85444,-0.77235 z m 6.31426,-6.04749 c 0.45744,-0.68748 1.51746,-2.38105 2.3556,-3.76349 0.83814,-1.38245 1.6854,-2.70277 1.88279,-2.93404 0.32605,-0.38201 -0.26498,-0.43809 -6.45663,-0.61272 -5.63091,-0.15881 -10.44995,-0.51682 -8.79591,-0.65346 1.05801,-0.0874 14.20113,-2.18353 14.54807,-2.32019 0.21828,-0.086 0.93266,-0.20578 1.5875,-0.26621 0.71217,-0.0657 1.32842,-0.29246 1.53353,-0.56424 0.31661,-0.41952 0.0934,-0.4813 -2.91042,-0.80566 -4.98739,-0.53854 -4.99643,-0.57511 -0.3429,-1.38794 2.32833,-0.40668 4.44051,-0.74727 4.69372,-0.75687 0.61318,-0.0232 2.05315,-3.20096 2.05315,-4.53092 0,-1.16651 0.26825,-1.06981 -4.7625,-1.71687 -4.84755,-0.62351 -10.68643,-1.57347 -15.34583,-2.49671 -4.13965,-0.82025 -11.95636,-2.76007 -12.56368,-3.11784 -0.43032,-0.2535 -2.43553,-2.58949 -2.98037,-3.47201 -0.23442,-0.37971 -0.55361,-0.80953 -0.70931,-0.95516 -0.40017,-0.37428 -3.35239,-4.06101 -4.08598,-5.10257 l -0.61237,-0.86944 1.1493,-1.46587 c 3.44786,-4.397609 4.43955,-5.778749 4.25939,-5.932139 -0.32323,-0.27521 -4.10494,-1.44885 -8.930944,-2.7717 -5.99306,-1.64275 -12.95801,-3.68825 -15.8149,-4.6446 -2.685668,-0.89904 -3.266548,-0.95254 -3.408878,-0.314 -0.0568,0.25466 -0.0599,1.81119 -0.007,3.45894 0.089,2.76882 0.12956,2.96618 0.53537,2.60357 2.050048,-1.83181 5.058258,1.43665 3.171108,3.44544 -0.66345,0.70621 -1.44256,0.77131 -2.740508,0.22899 -0.50465,-0.21086 -0.91738,-0.35968 -0.91718,-0.33073 2e-4,0.029 0.17831,1.0638 0.3958,2.299649 0.3037,1.72576 0.53378,2.35505 0.991818,2.71277 1.03898,0.8114 1.62946,0.8073 3.37364,-0.0235 1.28543,-0.61224 1.78768,-0.73313 2.22262,-0.53496 0.45224,0.20606 1.20696,-0.051 3.86644,-1.31663 6.54425,-3.114499 8.32397,-3.781829 9.85144,-3.693929 l 1.39058,0.08 -0.88908,0.52917 c -0.489,0.29104 -1.2629,0.78497 -1.71979,1.09761 -1.23689,0.846399 -8.15994,4.839929 -10.39295,5.995119 -1.07092,0.55402 -1.94714,1.11314 -1.94714,1.24248 0,0.2249 1.84088,1.14867 5.55625,2.78818 0.94589,0.4174 3.02948,1.54902 4.63021,2.51471 1.60073,0.96568 4.10104,2.44943 5.556254,3.29721 2.41081,1.4045 11.02062,7.01252 11.63447,7.57812 0.74383,0.68539 -7.30737,-2.62987 -13.108674,-5.39779 -1.97498,-0.9423 -4.05858,-1.86636 -4.63021,-2.05346 -0.57164,-0.1871 -2.03267,-0.86696 -3.24674,-1.5108 -1.21407,-0.64383 -2.26135,-1.11666 -2.32729,-1.05072 -0.0659,0.0659 0.66758,0.68179 1.63003,1.36858 0.96244,0.68679 1.82121,1.1774 1.90836,1.09025 0.43311,0.006 0.83532,0.12613 1.35238,0.37162 0.9002,0.43607 1.7094,0.79284 1.79822,0.79284 0.0888,0 0.86156,0.35575 1.7172,0.79056 0.85564,0.4348 1.64427,0.80625 1.75252,0.82544 0.28509,0.0505 1.12029,0.39049 2.181194,0.88778 l 0.92604,0.43409 -0.95081,-0.12267 c -0.52294,-0.0675 -2.189824,-0.7086 -3.704164,-1.42474 -3.37052,-1.59394 -4.45132,-2.02965 -4.61892,-1.86205 -0.0708,0.0708 0.27301,0.41429 0.7641,0.76321 0.4911,0.34894 2.79242,2.06317 5.11405,3.80943 2.321634,1.74625 5.047464,3.7484 6.057404,4.4492 1.00994,0.70082 3.08641,2.15202 4.61438,3.22492 6.43305,4.51712 9.34564,6.48019 13.09688,8.82725 3.56197,2.22864 7.45317,4.47579 7.8052,4.50746 0.0728,0.007 0.50656,-0.55057 0.964,-1.23804 z m -15.16805,-11.44073 c -0.72747,-0.29 -1.14178,-1.05018 -1.14178,-2.09496 0,-1.08817 0.8213,-1.86948 1.96517,-1.86948 1.72249,0 2.6535,2.22332 1.40827,3.36305 -0.75802,0.6938 -1.49897,0.89347 -2.23166,0.60139 z m 6.12224,-3.02637 c -0.79339,-0.79339 -0.8212,-1.4421 -0.10106,-2.3576 1.08971,-1.38534 3.15579,-0.64623 3.15579,1.12894 0,1.81512 -1.76026,2.52313 -3.05473,1.22866 z M 89.356346,45.914279 c -0.69631,-0.48772 -0.77547,-1.58402 -0.17616,-2.43966 0.51207,-0.73107 0.91125,-0.73986 1.8014,-0.0397 0.89022,0.70024 0.94281,1.89538 0.10911,2.47933 -0.32343,0.22653 -0.71365,0.41188 -0.86717,0.41188 -0.15353,0 -0.54375,-0.18535 -0.86718,-0.41188 z m 18.461974,34.146249 c 0,-0.0728 -0.0595,-0.13229 -0.1323,-0.13229 -0.0728,0 -0.13229,0.0595 -0.13229,0.13229 0,0.0728 0.0595,0.1323 0.13229,0.1323 0.0728,0 0.1323,-0.0595 0.1323,-0.1323 z m -0.52917,-0.26458 c 0,-0.0728 -0.0595,-0.13229 -0.13229,-0.13229 -0.0728,0 -0.13229,0.0595 -0.13229,0.13229 0,0.0728 0.0595,0.13229 0.13229,0.13229 0.0728,0 0.13229,-0.0595 0.13229,-0.13229 z m 14.73,-17.99044 c 1.63356,-0.48511 3.51734,-2.0865 4.17807,-3.55173 l 0.48688,-1.0797 h 8.82336 8.82335 v -0.79375 -0.79375 h -8.73125 -8.73125 l -0.003,-0.99219 c -0.006,-2.31868 -2.90204,-6.151559 -4.64792,-6.151559 -0.95081,0 -0.8904,1.179659 0.0864,1.687859 1.44866,0.75365 2.56371,2.45108 2.87052,4.36978 0.16235,1.01524 0.13263,1.08637 -0.45545,1.09016 -0.34602,0.002 -0.7907,0.10642 -0.98817,0.23155 -0.51226,0.32458 -0.12535,1.3519 0.50916,1.3519 0.66563,0 0.64531,0.17128 -0.14293,1.20471 -1.45709,1.91035 -4.75842,2.5674 -6.87535,1.36838 -1.66219,-0.94146 -2.61144,-2.51861 -2.74106,-4.55417 -0.0948,-1.48906 -0.0176,-1.86088 0.60816,-2.92867 0.39422,-0.67268 1.12222,-1.46229 1.61777,-1.75467 0.69575,-0.4105 0.901,-0.70647 0.901,-1.29922 0,-0.904969 -0.21291,-0.939709 -1.55695,-0.25403 -1.18562,0.60485 -2.60041,2.13429 -2.83354,3.06314 -0.15874,0.63247 -0.24885,0.65776 -2.45121,0.68791 -1.25754,0.0172 -2.64361,0.11743 -3.08018,0.22268 l -0.79375,0.19138 1.19063,0.56526 c 0.80521,0.38228 1.71399,0.56714 2.80742,0.57107 l 1.61679,0.006 0.15423,1.30229 c 0.32847,2.77338 2.46309,5.46575 4.93846,6.22882 1.58439,0.48842 2.80087,0.49138 4.41935,0.0107 z m -0.391,-4.63379 c 1.2049,-0.99318 1.46673,-2.01961 0.84787,-3.32377 -1.215,-2.56042 -4.31519,-2.46129 -5.40629,0.17285 -0.75351,1.81914 0.65619,3.94703 2.61485,3.94703 0.69666,0 1.25542,-0.22888 1.94357,-0.79611 z m 22.0808,-12.718259 c -0.0925,-0.88446 -0.34181,-2.28344 -0.55415,-3.10885 -0.21234,-0.82541 -0.45519,-1.90002 -0.53967,-2.38804 -0.16887,-0.97547 -1.09281,-2.93727 -1.39855,-2.96952 -0.70636,-0.0745 -2.39089,-0.22428 -6.80764,-0.60528 -2.7649,-0.2385 -5.35451,-0.50242 -5.75469,-0.58648 -0.8857,-0.18605 -0.97008,0.27082 -0.13229,0.71631 0.32742,0.17411 2.85899,2.55234 5.62572,5.28497 l 5.0304,4.96841 1.45189,0.0993 c 0.79854,0.0547 1.8558,0.12138 2.34947,0.1483 l 0.89759,0.0489 z m -10.61903,-0.31011 c -1.47223,-1.68291 -5.00726,-5.04441 -7.54452,-7.1742 -1.23693,-1.03828 -2.39062,-2.02094 -2.56377,-2.18369 -0.17314,-0.16275 -1.2447,-0.43191 -2.38125,-0.59813 -6.07492,-0.8885 -21.576044,-3.27729 -23.571824,-3.63253 -3.89643,-0.693536 -7.0144,-1.188116 -8.22713,-1.305016 -0.63663,-0.0614 -1.29147,-0.22158 -1.45521,-0.35604 -0.43933,-0.36079 -4.83179,-1.18191 -5.32008,-0.99453 -0.35972,0.13803 -1.98907,3.295056 -1.98907,3.854006 0,0.2251 6.08993,2.26156 10.71562,3.58327 1.74625,0.49896 5.19906,1.50778 7.67292,2.24182 10.328504,3.06467 30.458144,7.4838 34.889644,7.65946 l 0.75839,0.0301 z m -9.14993,-4.20066 c -0.22196,-0.41472 -0.2239,-0.73209 -0.007,-1.20724 0.23768,-0.52165 0.45696,-0.62883 1.14953,-0.56185 0.92318,0.0893 1.16418,0.55319 0.87855,1.6912 -0.21507,0.8569 -1.57569,0.90935 -2.02067,0.0779 z m -12.81706,-1.79599 c -2.67099,-0.68497 -5.50635,-1.6932 -6.03185,-2.14487 -0.4379,-0.37639 2.94018,0.32433 5.18181,1.07485 2.20305,0.73762 4.59772,1.81816 4.02772,1.81742 -0.14552,-1.9e-4 -1.57548,-0.33652 -3.17768,-0.7474 z m 28.90055,-5.69581 c 0.24097,-0.18083 -4.06099,-6.117956 -5.68003,-7.838998 -5.70387,-6.063252 -11.4356,-9.36412 -19.1168,-11.009259 -3.11612,-0.667401 -10.34993,-0.674785 -13.41217,-0.01369 -3.896264,0.841151 -9.941534,3.167062 -9.058024,3.485069 0.20762,0.07473 2.46108,0.729017 5.00769,1.453977 9.321594,2.653633 14.999644,5.202467 21.776964,9.775525 5.33592,3.600456 4.54451,3.294046 9.86097,3.817846 2.60825,0.25698 5.21853,0.4973 5.80061,0.53406 0.95523,0.0603 4.67837,-0.0976 4.82079,-0.20453 z m -16.80046,-3.469936 c -1.04746,-0.73367 -0.61992,-2.23395 0.6366,-2.23395 1.26911,0 1.96245,1.80837 0.90942,2.37194 -0.67892,0.36334 -0.85237,0.34786 -1.54602,-0.13799 z m -5.35054,1.907666 c 0,-0.0504 -1.59005,-1.000446 -3.53345,-2.111106 -6.33192,-3.61876 -10.35278,-5.233312 -19.516954,-7.836921 -6.94568,-1.973319 -7.09757,-1.99211 -7.60219,-0.940469 -0.20948,0.436563 -0.82423,1.280269 -1.36611,1.874902 -1.07855,1.183553 -1.97813,2.462778 -1.81766,2.584762 0.0561,0.04264 1.17355,0.329167 2.48324,0.63673 1.30969,0.307564 3.5877,0.861027 5.06226,1.229916 3.39748,0.84996 8.546724,1.80175 15.154954,2.80125 2.85053,0.43114 6.31388,1.01433 7.69633,1.29597 2.51381,0.512126 3.43958,0.637276 3.43958,0.464966 z m -78.898739,-6.191058 -1.77271,-0.0908 -5.53049,-5.7429 c -3.04177,-3.158595 -6.19317,-6.457275 -7.0031,-7.3304 l -1.47261,-1.5875001 5.46852,-0.08145 5.46852,-0.08145 2.91477,3.0580171 2.91477,3.058017 h 5.8365 5.83651 l 0.6214,-0.661458 c 0.34178,-0.363802 0.75896,-0.661459 0.92707,-0.661459 0.36636,0 6.25645,1.598209 9.34876,2.536677 l 2.20603,0.669498 -3.42227,2.326485 c -1.88224,1.279567 -4.06824,2.814205 -4.85777,3.410308 l -1.43552,1.083822 -7.13783,0.0927 c -3.92581,0.05099 -7.93556,0.05184 -8.91055,0.0019 z"
       id="path1"
       sodipodi:nodetypes="assssscssscccsscscccssscccccsscccccccsscccccssssscssssscsssscccssssscsssssssssssssssccssssssssssssascccssssssccssscscscasssssssssscssssscsssssssscsscsssssssssssssssssssssssscssssssscssssssscccsssssssssssssssscsssscscssssssscsscccscssccsssssscsssscsssssssscssssssssscssssssscssssscsssssscscscssssssssssssscssscsccssssssscccssssssssssssssssssssssssssssccccccccscscsssssssssssscsccssssssssscssssssscssccsssssssssssscsccssccssssssssssssssssssssssssssssssccsscccccccssscsscssc" /><path
       d="m 110.71022,188.44689 c -0.46826,-0.17734 -1.02632,-0.50103 -1.24013,-0.71931 -0.34261,-0.34977 -0.31278,-0.48433 0.25133,-1.13372 0.617,-0.7103 0.66837,-0.72221 1.42542,-0.33073 1.04155,0.53861 1.49927,0.51222 2.13454,-0.12305 0.4749,-0.47489 0.52917,-0.88194 0.52917,-3.96875 v -3.43958 h 1.05833 1.05834 v 3.30194 c 0,3.71541 -0.36397,5.08724 -1.57931,5.95264 -0.93418,0.6652 -2.55537,0.87045 -3.63769,0.46056 z m -51.668416,-4.82035 v -4.89479 h 1.00838 c 0.96711,0 1.09974,0.1164 3.24114,2.84427 l 2.23278,2.84427 0.0751,-2.84427 0.0751,-2.84427 h 0.88623 c 0.69539,0 0.92058,0.12819 1.04577,0.59531 0.21034,0.78491 0.207,5.15651 -0.006,7.40834 -0.16428,1.73937 -0.18799,1.78593 -0.90934,1.78593 -0.63239,0 -1.06196,-0.42381 -2.9383,-2.89894 -1.2087,-1.59442 -2.28694,-2.90411 -2.39608,-2.91042 -0.10914,-0.006 -0.19843,1.29822 -0.19843,2.89895 v 2.91041 h -1.05834 -1.05833 z m 14.2875,0 v -4.89479 h 1.05833 1.058338 v 4.89479 4.89479 h -1.058338 -1.05833 z m 7.672901,0 v -4.89479 l 0.99219,0.0102 c 0.94353,0.01 1.096,0.14514 3.10886,2.76116 1.16417,1.51301 2.20596,2.75857 2.3151,2.7679 0.10914,0.009 0.19844,-1.22373 0.19844,-2.74013 v -2.7571 l 0.78729,-0.17292 c 0.43302,-0.0951 0.90927,-0.0975 1.05834,-0.005 0.16914,0.10453 0.27104,2.00183 0.27104,5.04669 v 4.87917 h -0.90543 c -1.01681,0 -1.68923,-0.66261 -4.00873,-3.95025 -0.71695,-1.01621 -1.39285,-1.85281 -1.50199,-1.85912 -0.10914,-0.006 -0.19844,1.29823 -0.19844,2.89896 v 2.91041 h -1.05833 -1.05834 z m 14.55209,0 v -4.89479 l 0.99219,0.008 c 0.771,0.006 1.10749,0.16867 1.50945,0.72761 0.28449,0.39561 1.29652,1.65571 2.248965,2.80022 l 1.73169,2.08092 0.13229,-2.87467 0.13229,-2.87468 h 0.92605 0.92604 l 0.072,4.96094 0.072,4.96093 h -0.91469 c -0.8506,0 -1.07806,-0.20834 -3.24698,-2.97396 l -2.332305,-2.97395 -0.0748,2.97395 -0.0748,2.97396 h -1.04967 -1.04967 z m 25.684545,4.69636 c 0.011,-0.10914 0.87717,-2.28204 1.92489,-4.82865 l 1.90495,-4.63021 1.2196,-0.0794 c 1.12491,-0.0732 1.24096,-0.0219 1.49465,0.66145 0.15127,0.40747 1.04153,2.61609 1.97836,4.90805 l 1.70333,4.16718 -1.22026,-0.003 c -1.17177,-0.003 -1.23788,-0.0446 -1.66363,-1.05833 l -0.44337,-1.05564 h -1.89302 -1.89302 l -0.41572,1.05833 c -0.39624,1.00873 -0.46966,1.05833 -1.56622,1.05833 -0.63277,0 -1.14151,-0.0893 -1.13054,-0.19843 z m 6.33005,-3.71894 c 0,-0.61265 -1.15016,-3.50178 -1.31926,-3.31392 -0.10885,0.12091 -0.37973,0.75562 -0.60196,1.41046 -0.22223,0.65484 -0.48892,1.39898 -0.59264,1.65365 -0.16502,0.40514 -0.0197,0.46302 1.16264,0.46302 0.74317,0 1.35122,-0.096 1.35122,-0.21321 z m -81.797656,-0.97742 -0.0947,-1.19062 h 3.37534 3.37535 v 1.19062 1.19063 h -3.28065 -3.28065 z m 90.264326,0.008 v -1.19877 h 3.3225 3.32251 l -0.0814,1.12448 -0.0814,1.12448 -3.24115,0.0743 -3.24114,0.0743 z M 24.627525,164.11352 c -0.0102,-5.56617 -0.0399,-14.79351 -0.0662,-20.50521 -0.0262,-5.71169 -0.01,-10.3849 0.0372,-10.3849 0.0467,1e-5 0.82059,0.52444 1.7198,1.16542 1.85082,1.31932 5.884629,3.63942 9.922049,5.70681 2.16744,1.10985 2.87711,1.61913 3.43958,2.46836 0.70671,1.067 0.7089,1.08598 0.78183,6.77877 0.0684,5.33502 0.0382,5.76523 -0.4606,6.57109 -0.69815,1.12793 -1.95712,1.87325 -3.51514,2.08099 -0.69122,0.0922 -1.25677,0.22223 -1.25677,0.28904 0,0.0668 1.36922,3.56866 3.04271,7.78191 1.67349,4.21325 3.04271,7.77466 3.04271,7.91424 0,0.14479 -1.10798,0.2529 -2.57969,0.2517 l -2.57969,-0.002 -2.8356,-7.2078 c -1.55958,-3.9643 -2.986499,-7.56499 -3.170939,-8.00156 -0.28764,-0.68083 -0.35883,0.16601 -0.50044,5.95313 -0.0908,3.71078 -0.18193,7.31242 -0.2025,8.00364 l -0.0374,1.25677 h -2.38125 -2.38125 z m 10.866369,-14.72673 v -3.68038 l -2.84334,-1.5866 c -1.56384,-0.87262 -2.933059,-1.53115 -3.042709,-1.46338 -0.24585,0.15195 -0.26794,9.98939 -0.023,10.23435 0.097,0.097 1.466229,0.17639 3.042709,0.17639 h 2.86632 z m 33.55726,24.64861 c -0.1153,-0.51054 -0.0713,-29.43482 0.0448,-29.43621 0.0728,-8.7e-4 1.23362,0.50282 2.57969,1.11931 l 2.44739,1.12089 v 13.27871 c 0,7.30329 -0.0723,13.46704 -0.16059,13.69722 -0.12979,0.33822 -0.61204,0.41851 -2.51354,0.41851 -1.29412,0 -2.37311,-0.0893 -2.39776,-0.19843 z m 15.250741,-0.0785 c -0.0941,-0.15229 -0.13484,-6.73049 -0.0905,-14.61823 l 0.0806,-14.34133 -2.57097,-0.0757 -2.57097,-0.0757 v -2.50396 -2.50396 h 7.40834 7.40833 v 2.51354 2.51355 h -2.24896 c -1.62034,0 -2.25023,0.0924 -2.25352,0.33072 -0.002,0.18191 -4.8e-4,6.4932 0.004,14.02509 0.005,7.5319 -0.0654,13.99104 -0.15642,14.35365 -0.16073,0.64041 -0.23238,0.65928 -2.50242,0.65928 -1.34183,0 -2.40982,-0.1179 -2.50808,-0.27689 z m 18.131575,-14.39755 v -14.6943 h -2.38125 -2.381255 v -2.51355 -2.51354 h 7.436645 c 6.67254,0 7.42014,0.043 7.27604,0.41852 -0.0883,0.23018 -0.1606,1.36127 -0.1606,2.51354 v 2.09503 h -2.37901 -2.37901 l -0.0684,14.61822 -0.0684,14.61823 -2.4474,0.0761 -2.44739,0.0761 z m 14.02291,-2.52347 v -17.19792 h 11.81505 11.81504 l -2.54749,2.57969 -2.54748,2.57969 h -6.82016 -6.82016 l 0.0153,3.97623 c 0.008,2.18693 0.094,4.18122 0.19013,4.43177 0.14953,0.38967 0.56384,0.45554 2.86537,0.45554 h 2.69056 l 2.27868,1.79319 c 1.25328,0.98626 2.66564,2.06593 3.13858,2.39927 0.47294,0.33334 0.85989,0.71703 0.85989,0.85264 0,0.14522 -2.5013,0.24656 -6.08541,0.24656 h -6.08542 v 3.53495 c 0,1.94422 0.0757,4.08735 0.16826,4.7625 l 0.16825,1.22755 h 7.36251 7.36251 l 1.0254,1.52136 c 0.56396,0.83674 1.35362,2.0869 1.75479,2.77812 l 0.7294,1.25677 H 128.1232 116.45638 Z m 27.68362,16.9894 c -0.20633,-0.33384 -0.15261,-33.90195 0.0544,-34.01949 0.0965,-0.0548 1.43069,-0.1808 2.96483,-0.28003 l 2.78934,-0.18041 2.74106,8.41453 c 1.50758,4.628 2.82468,8.51034 2.92688,8.62743 0.22459,0.2573 0.59056,-16.56732 0.40318,-18.53528 -0.0751,-0.78832 -0.0242,-1.38907 0.11757,-1.38907 0.1374,0 1.26665,-0.76691 2.50945,-1.70425 l 2.25963,-1.70426 v 20.48967 20.48967 l -2.57969,-0.004 -2.57968,-0.004 -3.17499,-9.91252 c -1.74625,-5.45188 -3.23753,-9.91473 -3.31394,-9.91743 -0.0764,-0.003 -0.13594,4.43016 -0.13229,9.85081 l 0.007,9.85573 -2.42582,0.0758 c -1.3342,0.0417 -2.48917,-0.0267 -2.56661,-0.15201 z m -93.697146,-0.42192 c -0.99505,-0.45563 -2.11708,-1.64 -2.53597,-2.67686 -0.23755,-0.588 -0.31388,-4.21143 -0.29447,-13.97855 0.0256,-12.89489 0.0386,-13.21046 0.59113,-14.3518 1.11042,-2.29381 2.64587,-2.83759 7.66326,-2.71393 4.16062,0.10254 5.17375,0.46471 6.4823,2.3172 l 0.79375,1.12371 v 13.40481 13.40481 l -0.60054,1.12419 c -0.3303,0.6183 -1.09498,1.45174 -1.69929,1.85208 -1.07127,0.7097 -1.20513,0.72952 -5.35258,0.79285 -3.16099,0.0483 -4.45777,-0.0284 -5.04759,-0.29851 z m 7.74178,-16.76592 -0.0689,-11.8401 h -2.77812 -2.77813 l -0.0689,11.8401 -0.0689,11.8401 h 2.91587 2.91586 z"
       style="display:inline;fill:#000000;fill-opacity:1"
       id="path1-0" /></g><g
     inkscape:groupmode="layer"
     id="layer2"
     inkscape:label="Layer 2"
     style="display:inline"><path
       style="display:inline;fill:#feffff;fill-opacity:1"
       d="m 108.05932,203.72371 c -3.40825,-1.23026 -6.76165,-2.32759 -10.345871,-4.36193 -10.22265,-5.8022 -19.243205,-12.48049 -25.964885,-22.4722 -2.44337,-3.63205 -6.056,-10.71886 -7.57237,-14.85453 -3.36813,-9.18609 -5.12595,-21.40296 -4.49218,-31.22084 0.12681,-1.96453 0.23572,-3.95882 0.24202,-4.43177 l 0.0114,-0.85989 h -1.55509 c -1.13262,0 -1.65376,0.12024 -1.91823,0.4426 -0.19972,0.24343 -1.6614,1.61265 -3.24818,3.04271 l -2.88505,2.6001 h -5.40144 -5.40144 l 4.31774,-4.18867 c 2.37476,-2.30376 5.5679,-5.39124 7.09587,-6.86105 l 2.77812,-2.67238 1.87518,-0.17746 c 1.03135,-0.0976 4.30557,-0.13552 7.27604,-0.0843 2.97048,0.0513 9.93383,0.0634 15.47413,0.0271 l 10.07327,-0.0661 7.38923,-4.39746 c 4.06408,-2.41861 7.563566,-4.56173 7.776656,-4.7625 0.32964,-0.3106 -1.80574,-0.36504 -14.318436,-0.36504 h -14.70586 l -1.29198,2.77802 -1.29198,2.77801 -4.6897,1.1e-4 -4.6897,1.1e-4 0.82135,-2.18281 c 0.45175,-1.20055 0.87935,-2.45071 0.95024,-2.77813 l 0.12887,-0.59531 h -5.99407 -5.99407 l -3.23104,2.90817 -3.23105,2.90818 -5.55625,-0.006 -5.55624,-0.006 3.1677,-2.96864 c 1.74224,-1.63276 4.95692,-4.66386 7.14375,-6.7358 l 3.97604,-3.76715 9.45363,-0.003 9.45363,-0.003 2.12712,-3.174998 2.12711,-3.174996 h 5.71572 c 5.40394,0 5.69612,0.0253 5.35662,0.463016 -0.19749,0.25466 -0.96482,1.17739 -1.70516,2.05052 -1.62518,1.91665 -2.49846,3.15628 -2.49846,3.546568 0,0.20651 4.0677,0.28989 14.14277,0.28989 h 14.142766 l 0.27555,-0.992188 c 0.15155,-0.5457 0.27621,-1.16033 0.27702,-1.36584 0.003,-0.83423 1.98499,-6.127966 3.12018,-8.334996 6.27231,-12.194569 19.73666,-19.195484 34.42493,-17.899565 9.5945,0.846504 17.14863,4.068766 24.38312,10.400767 7.92137,6.933204 13.20449,18.111432 13.28726,28.113692 0.0145,1.74625 -0.11144,3.64341 -0.27975,4.21589 -0.28502,0.96949 -0.23396,1.20092 0.74444,3.3738 0.57775,1.2831 1.05028,2.42205 1.05008,2.53099 -2e-4,0.10894 -1.0716,1.80542 -2.38088,3.76995 l -2.38051,3.57187 -3.7e-4,4.22048 -3.7e-4,4.22047 -3.75897,6.36286 c -6.24274,10.56716 -8.39455,13.93552 -10.31805,16.15146 -1.97427,2.27443 -3.04777,3.05273 -5.81659,4.21712 -2.0564,0.8648 -2.26127,0.83995 -5.47687,-0.66432 -1.22069,-0.57105 -2.36398,-1.03827 -2.54065,-1.03827 -0.33081,0 -2.78221,2.95669 -2.77841,3.3511 0.002,0.24051 5.53296,3.81062 16.26975,10.50236 3.78354,2.35811 7.12579,4.44784 7.42722,4.64384 0.50353,0.32743 0.6573,0.24076 1.89274,-1.06681 7.60811,-8.05229 13.32356,-19.31427 15.65979,-30.8568 1.2049,-5.95298 1.43454,-8.70768 1.27344,-15.27587 -0.10478,-4.27181 -0.29665,-6.70167 -0.71927,-9.10874 -0.61853,-3.52292 -2.05325,-8.59019 -3.04089,-10.74013 -0.45607,-0.99276 -0.64198,-1.98322 -0.74496,-3.96875 -0.3179,-6.12913 -2.71991,-13.955628 -5.91158,-19.261773 -2.51498,-4.181154 -6.79674,-9.068081 -10.63095,-12.133478 -4.16733,-3.331721 -10.28506,-6.4452 -15.96721,-8.126149 -4.22367,-1.249486 -7.5999,-1.694335 -12.78625,-1.684701 -3.76754,0.007 -5.03495,0.118433 -7.8052,0.686255 -5.31925,1.090292 -9.57696,2.645867 -13.47824,4.924337 -1.23164,0.719319 -2.14332,1.067394 -2.79572,1.067394 -1.96727,0 -8.38895,2.00418 -11.58922,3.616945 l -1.27256,0.641616 -3.75452,-1.564005 c -2.064986,-0.860203 -4.617726,-1.841744 -5.672756,-2.181203 -1.05502,-0.339458 -1.91823,-0.701782 -1.91823,-0.805164 0,-0.262993 4.68393,-2.637062 7.540626,-3.822002 6.17413,-2.560986 14.45786,-4.840626 20.76978,-5.715734 1.58385,-0.219591 5.1069,-0.344042 9.525,-0.33647 5.85188,0.01003 7.62407,0.107374 10.71563,0.588594 12.00309,1.868358 22.0992,6.042605 31.32776,12.952491 3.71878,2.784439 9.94463,8.948675 12.92091,12.793043 8.0945,10.455374 13.1337,23.169334 14.37035,36.256484 0.41665,4.40933 0.19109,15.52209 -0.39129,19.2778 -0.88857,5.73037 -3.36678,14.26108 -5.57252,19.18229 -4.4496,9.92746 -11.80994,18.28453 -19.5823,25.76498 -3.10922,2.99244 -7.98631,5.98414 -10.59908,7.43349 l -6.69284,3.31931 c -10.16908,4.4184 -21.09137,6.05414 -29.33735,5.61494 l -7.8783,-10.04658 c -1.03948,-1.32557 -2.74322,-3.51598 -3.83663,-4.82864 -1.0934,-1.31267 -3.65158,-4.47026 -5.68485,-7.01687 -2.03327,-2.54662 -3.95164,-4.92787 -4.26304,-5.29167 -0.31141,-0.3638 -3.04039,-3.63802 -6.06441,-7.27604 -4.440506,-5.34212 -9.905676,-11.71528 -11.609096,-13.53785 -0.21713,-0.23232 -0.83723,-0.0308 -2.50649,0.81439 l -2.21798,1.12307 5.57982,7.38769 c 3.0689,4.06324 6.85926,9.05457 8.42303,11.09187 4.258666,5.54823 13.922306,18.41746 14.453846,19.24843 l 0.46542,0.72761 c 1.98771,4.34105 1.71651,4.07857 1.17903,5.04061 -0.62861,1.12716 -2.60889,0.3132 -3.14118,0.1917 -1.56383,-0.53844 -2.93432,-0.8603 -3.63863,-1.11453 z m -4.03869,-10.45981 c -0.0165,-0.28664 -0.25497,-0.79266 -0.52991,-1.12448 -1.05773,-1.27656 -1.04038,-1.38649 0.0369,-0.23367 2.19239,2.34618 1.11318,0.36608 -1.72762,-3.16976 -2.041326,-2.54078 -3.000286,-3.53842 -3.373426,-3.50955 -0.50162,0.0388 -1.98812,-1.56357 -3.91581,-4.22112 -0.67176,-0.92609 -0.71601,-1.11083 -0.43091,-1.79912 0.29806,-0.71958 0.24457,-0.853 -0.8644,-2.15607 -0.65017,-0.76397 -1.9951,-2.4606 -2.98875,-3.77028 -2.5428,-3.3516 -6.93251,-8.84122 -7.85027,-9.8173 l -0.77238,-0.82146 -3.15656,1.61521 c -1.73611,0.88837 -3.15827,1.69382 -3.16035,1.78989 -0.002,0.0961 0.50084,0.81045 1.11762,1.5875 0.61678,0.77705 1.75092,2.28752 2.52033,3.35659 3.42614,4.76056 11.91054,13.72022 15.95618,16.84999 1.89598,1.46676 6.839336,4.88466 7.075846,4.89233 0.0998,0.003 0.47909,0.23872 0.84289,0.52329 0.84713,0.66263 1.25851,0.66533 1.22065,0.008 z m 26.46705,-1.26478 c -0.34614,-0.54571 -1.92521,-2.97433 -3.50904,-5.39695 -1.58384,-2.42261 -3.23282,-4.98246 -3.66441,-5.68854 -0.4316,-0.70608 -1.36895,-2.23628 -2.08301,-3.40045 -0.71405,-1.16417 -1.89905,-3.18823 -2.63331,-4.49792 -4.3342,-7.73077 -13.42187,-22.16722 -14.53644,-23.09223 -0.26372,-0.21887 -0.75555,0.11221 -2.0866,1.40464 l -1.74155,1.691 1.21719,0.15643 c 1.28806,0.16554 2.91413,0.77673 2.97074,1.11661 0.0186,0.1115 0.0837,0.44085 0.14466,0.73189 0.061,0.29104 0.17603,1.14957 0.25565,1.90784 0.13015,1.23951 0.0755,1.44289 -0.54153,2.01472 -0.37746,0.34982 -0.68629,0.71925 -0.68629,0.82095 0,0.35575 11.691,15.25544 14.13201,18.01065 1.0314,1.16417 1.9348,2.1762 2.00756,2.24896 0.35396,0.35395 2.38006,2.68412 3.43959,3.95577 4.63677,5.5651 7.64151,9.00881 7.86043,9.00881 0.046,0 -0.1995,-0.44648 -0.54565,-0.99218 z m 3.04694,-10.83664 c -0.72104,-1.29856 -2.17278,-4.02009 -3.22608,-6.04784 -1.0533,-2.02776 -2.09003,-3.96939 -2.30385,-4.31473 -0.21382,-0.34534 -0.26346,-0.55044 -0.11032,-0.45579 0.34473,0.21305 -1.19671,-3.28426 -4.68978,-10.64045 -1.47264,-3.10129 -2.67753,-5.70876 -2.67753,-5.79438 0,-0.0856 0.37467,0.36821 0.83261,1.0085 0.87835,1.22815 1.96096,2.45766 5.23385,5.944 1.10184,1.17369 2.53912,2.72677 3.19396,3.45127 0.65484,0.72451 2.17092,2.39773 3.36905,3.71826 1.19813,1.32054 2.42617,2.6845 2.72898,3.03102 1.05159,1.20342 0.36394,0.0703 -3.31991,-5.47052 -6.86464,-10.32503 -9.3774,-14.37366 -11.13894,-17.9474 -0.79692,-1.61674 -1.20431,-2.64188 -0.90533,-2.27807 1.00984,1.22874 6.48736,7.06704 6.56922,7.00188 0.10304,-0.082 -1.97685,-4.00401 -2.5907,-4.88522 -0.25343,-0.3638 -1.80648,-2.92364 -3.45122,-5.68855 -1.64475,-2.76489 -3.25648,-5.38427 -3.58162,-5.82083 -0.62536,-0.83964 -1.11634,-1.68814 -2.8324,-4.89479 -0.58408,-1.09141 -1.14056,-2.07396 -1.23663,-2.18344 -0.0961,-0.10949 -0.73762,1.44709 -1.42567,3.45906 l -1.25099,3.65813 1.59558,4.37226 c 0.87757,2.40475 1.59558,4.49341 1.59558,4.64145 0,0.14804 0.64641,1.96736 1.43646,4.04294 0.79006,2.07558 1.34507,3.6691 1.23338,3.54117 -0.4154,-0.47578 -3.14528,-4.52335 -4.14664,-6.14819 -0.57021,-0.92524 -1.24192,-1.99681 -1.4927,-2.38126 -0.25079,-0.38445 -0.76095,-1.26878 -1.13371,-1.96519 l -0.67774,-1.26618 -1.04032,2.05993 -1.04031,2.05995 1.47097,2.64583 c 0.80903,1.45521 1.59645,2.7649 1.74981,2.91042 0.19188,0.18205 0.21273,0.14867 0.0669,-0.10703 -0.13221,-0.23176 -0.10948,-0.30825 0.0604,-0.20326 0.14982,0.0926 0.27372,0.43841 0.27533,0.76849 0.002,0.33007 0.53538,1.4931 1.18615,2.58451 1.80776,3.0318 7.48075,11.45876 9.67712,14.37492 3.70595,4.92045 12.95697,15.86394 13.2264,15.64616 0.0449,-0.0363 -0.50828,-1.12847 -1.22932,-2.42703 z M 121.5854,167.19447 c 0,-0.0728 0.0595,-0.13229 0.13229,-0.13229 0.0728,0 0.13229,0.0595 0.13229,0.13229 0,0.0728 -0.0595,0.13229 -0.13229,0.13229 -0.0728,0 -0.13229,-0.0595 -0.13229,-0.13229 z M 85.241144,155.00084 c 11.26585,-5.69196 11.31241,-5.71889 13.72674,-7.9393 l 2.422536,-2.22796 2.17502,-4.48365 c 1.38318,-2.85131 2.70215,-6.10162 3.62294,-8.92788 1.80271,-5.53327 3.36712,-11.3726 3.14367,-11.73414 -0.0928,-0.15017 -0.63486,-0.45954 -1.20457,-0.68749 l -1.03583,-0.41446 v -1.85166 c 0,-1.48689 -0.0737,-1.82339 -0.374,-1.70814 -0.20571,0.0789 -1.78328,1.12446 -3.50573,2.32338 -1.72245,1.19893 -3.4975,2.427 -3.94455,2.72906 -0.447046,0.30206 -1.174996,1.14451 -1.617666,1.87211 -4.1733,6.85955 -8.36057,13.61797 -9.5445,15.40518 -1.26408,1.90821 -1.62533,2.26187 -2.93533,2.87363 -1.22818,0.57355 -10.99496,4.85494 -12.14332,5.32317 -0.25692,0.10476 -0.33073,-0.87048 -0.33073,-4.3695 v -4.50434 l 1.25677,-0.46541 c 0.69122,-0.25598 2.47728,-0.95918 3.96901,-1.56267 l 2.71223,-1.09725 2.78701,-3.94932 2.78701,-3.94932 -8.65734,-0.0698 c -4.76153,-0.0384 -8.74766,0.0211 -8.85807,0.1323 -0.48095,0.48426 -0.82547,6.45988 -0.68143,11.81942 0.20962,7.8 0.91838,11.95281 3.28896,19.27082 0.69496,2.14535 1.34757,3.90152 1.45026,3.90261 0.10269,0.001 5.2736,-2.56812 11.49091,-5.70936 z m 73.856486,3.35149 c 0.83259,-0.4248 1.74281,-0.94431 2.0227,-1.15447 0.49129,-0.36891 0.48215,-0.39914 -0.26459,-0.87439 -0.42541,-0.27074 -1.07113,-0.76074 -1.43493,-1.08888 -0.80252,-0.72386 -9.92909,-6.89225 -13.69859,-9.25848 -1.49597,-0.93907 -2.85044,-1.66391 -3.00992,-1.61075 -0.15949,0.0532 1.15842,1.32396 2.92867,2.82398 1.77025,1.50003 3.40528,3.01217 3.63339,3.36031 0.22811,0.34814 0.51943,0.56829 0.64736,0.48922 0.12794,-0.0791 0.17426,0.0112 0.10293,0.20071 -0.11886,0.31573 1.54522,2.40605 1.76127,2.21241 0.0518,-0.0465 0.35326,0.31276 0.66981,0.79829 0.56057,0.85983 0.51619,0.84352 -1.70642,-0.62713 -2.21741,-1.46722 -12.72563,-8.87569 -16.7285,-11.79388 -3.50564,-2.5557 -11.46821,-7.83708 -11.60679,-7.6985 -0.33562,0.33562 7.91299,8.59161 11.07763,11.08754 4.3696,3.44626 12.00722,8.19823 17.98931,11.19257 2.98189,1.49259 5.57489,2.7138 5.76223,2.7138 0.18735,0 1.02184,-0.34756 1.85444,-0.77235 z m 6.31426,-6.04749 c 0.45744,-0.68748 1.51746,-2.38105 2.3556,-3.76349 0.83814,-1.38245 1.6854,-2.70277 1.88279,-2.93404 0.32605,-0.38201 -0.26498,-0.43809 -6.45663,-0.61272 -5.63091,-0.15881 -10.44995,-0.51682 -8.79591,-0.65346 1.05801,-0.0874 14.20113,-2.18353 14.54807,-2.32019 0.21828,-0.086 0.93266,-0.20578 1.5875,-0.26621 0.71217,-0.0657 1.32842,-0.29246 1.53353,-0.56424 0.31661,-0.41952 0.0934,-0.4813 -2.91042,-0.80566 -4.98739,-0.53854 -4.99643,-0.57511 -0.3429,-1.38794 2.32833,-0.40668 4.44051,-0.74727 4.69372,-0.75687 0.61318,-0.0232 2.05315,-3.20096 2.05315,-4.53092 0,-1.16651 0.26825,-1.06981 -4.7625,-1.71687 -4.84755,-0.62351 -10.68643,-1.57347 -15.34583,-2.49671 -4.13965,-0.82025 -11.95636,-2.76007 -12.56368,-3.11784 -0.43032,-0.2535 -2.43553,-2.58949 -2.98037,-3.47201 -0.23442,-0.37971 -0.55361,-0.80953 -0.70931,-0.95516 -0.40017,-0.37428 -3.35239,-4.06101 -4.08598,-5.10257 l -0.61237,-0.86944 1.1493,-1.46587 c 3.44786,-4.39761 4.43955,-5.77875 4.25939,-5.93214 -0.32323,-0.27521 -4.10494,-1.44885 -8.93094,-2.7717 -5.99306,-1.64275 -12.95801,-3.68825 -15.8149,-4.6446 -2.68567,-0.89904 -3.26655,-0.95254 -3.40888,-0.314 -0.0568,0.25466 -0.0599,1.81119 -0.007,3.45894 0.089,2.76882 0.12956,2.96618 0.53537,2.60357 2.05005,-1.83181 5.05826,1.43665 3.17111,3.44544 -0.66345,0.70621 -1.44256,0.77131 -2.74051,0.22899 -0.50465,-0.21086 -0.91738,-0.35968 -0.91718,-0.33073 2e-4,0.029 0.17831,1.0638 0.3958,2.29965 0.3037,1.72576 0.53378,2.35505 0.99182,2.71277 1.03898,0.8114 1.62946,0.8073 3.37364,-0.0235 1.28543,-0.61224 1.78768,-0.73313 2.22262,-0.53496 0.45224,0.20606 1.20696,-0.051 3.86644,-1.31663 6.54425,-3.1145 8.32397,-3.78183 9.85144,-3.69393 l 1.39058,0.08 -0.88908,0.52917 c -0.489,0.29104 -1.2629,0.78497 -1.71979,1.09761 -1.23689,0.8464 -8.15994,4.83993 -10.39295,5.99512 -1.07092,0.55402 -1.94714,1.11314 -1.94714,1.24248 0,0.2249 1.84088,1.14867 5.55625,2.78818 0.94589,0.4174 3.02948,1.54902 4.63021,2.51471 1.60073,0.96568 4.10104,2.44943 5.55625,3.29721 2.41081,1.4045 11.02062,7.01252 11.63447,7.57812 0.74383,0.68539 -7.30737,-2.62987 -13.10867,-5.39779 -1.97498,-0.9423 -4.05858,-1.86636 -4.63021,-2.05346 -0.57164,-0.1871 -2.03267,-0.86696 -3.24674,-1.5108 -1.21407,-0.64383 -2.26135,-1.11666 -2.32729,-1.05072 -0.0659,0.0659 0.66758,0.68179 1.63003,1.36858 0.96244,0.68679 1.82121,1.1774 1.90836,1.09025 0.43311,0.006 0.83532,0.12613 1.35238,0.37162 0.9002,0.43607 1.7094,0.79284 1.79822,0.79284 0.0888,0 0.86156,0.35575 1.7172,0.79056 0.85564,0.4348 1.64427,0.80625 1.75252,0.82544 0.28509,0.0505 1.12029,0.39049 2.18119,0.88778 l 0.92604,0.43409 -0.95081,-0.12267 c -0.52294,-0.0675 -2.18982,-0.7086 -3.70416,-1.42474 -3.37052,-1.59394 -4.45132,-2.02965 -4.61892,-1.86205 -0.0708,0.0708 0.27301,0.41429 0.7641,0.76321 0.4911,0.34894 2.79242,2.06317 5.11405,3.80943 2.32163,1.74625 5.04746,3.7484 6.0574,4.4492 1.00994,0.70082 3.08641,2.15202 4.61438,3.22492 6.43305,4.51712 9.34564,6.48019 13.09688,8.82725 3.56197,2.22864 7.45317,4.47579 7.8052,4.50746 0.0728,0.007 0.50656,-0.55057 0.964,-1.23804 z m -15.16805,-11.44073 c -0.72747,-0.29 -1.14178,-1.05018 -1.14178,-2.09496 0,-1.08817 0.8213,-1.86948 1.96517,-1.86948 1.72249,0 2.6535,2.22332 1.40827,3.36305 -0.75802,0.6938 -1.49897,0.89347 -2.23166,0.60139 z m 6.12224,-3.02637 c -0.79339,-0.79339 -0.8212,-1.4421 -0.10106,-2.3576 1.08971,-1.38534 3.15579,-0.64623 3.15579,1.12894 0,1.81512 -1.76026,2.52313 -3.05473,1.22866 z m -32.60515,-28.33745 c -0.69631,-0.48772 -0.77547,-1.58402 -0.17616,-2.43966 0.51207,-0.73107 0.91125,-0.73986 1.8014,-0.0397 0.89022,0.70024 0.94281,1.89538 0.10911,2.47933 -0.32343,0.22653 -0.71365,0.41188 -0.86717,0.41188 -0.15353,0 -0.54375,-0.18535 -0.86718,-0.41188 z m 18.46197,34.14625 c 0,-0.0728 -0.0595,-0.13229 -0.1323,-0.13229 -0.0728,0 -0.13229,0.0595 -0.13229,0.13229 0,0.0728 0.0595,0.1323 0.13229,0.1323 0.0728,0 0.1323,-0.0595 0.1323,-0.1323 z m -0.52917,-0.26458 c 0,-0.0728 -0.0595,-0.13229 -0.13229,-0.13229 -0.0728,0 -0.13229,0.0595 -0.13229,0.13229 0,0.0728 0.0595,0.13229 0.13229,0.13229 0.0728,0 0.13229,-0.0595 0.13229,-0.13229 z m 14.73,-17.99044 c 1.63356,-0.48511 3.51734,-2.0865 4.17807,-3.55173 l 0.48688,-1.0797 h 8.82336 8.82335 v -0.79375 -0.79375 h -8.73125 -8.73125 l -0.003,-0.99219 c -0.006,-2.31868 -2.90204,-6.15156 -4.64792,-6.15156 -0.95081,0 -0.8904,1.17966 0.0864,1.68786 1.44866,0.75365 2.56371,2.45108 2.87052,4.36978 0.16235,1.01524 0.13263,1.08637 -0.45545,1.09016 -0.34602,0.002 -0.7907,0.10642 -0.98817,0.23155 -0.51226,0.32458 -0.12535,1.3519 0.50916,1.3519 0.66563,0 0.64531,0.17128 -0.14293,1.20471 -1.45709,1.91035 -4.75842,2.5674 -6.87535,1.36838 -1.66219,-0.94146 -2.61144,-2.51861 -2.74106,-4.55417 -0.0948,-1.48906 -0.0176,-1.86088 0.60816,-2.92867 0.39422,-0.67268 1.12222,-1.46229 1.61777,-1.75467 0.69575,-0.4105 0.901,-0.70647 0.901,-1.29922 0,-0.90497 -0.21291,-0.93971 -1.55695,-0.25403 -1.18562,0.60485 -2.60041,2.13429 -2.83354,3.06314 -0.15874,0.63247 -0.24885,0.65776 -2.45121,0.68791 -1.25754,0.0172 -2.64361,0.11743 -3.08018,0.22268 l -0.79375,0.19138 1.19063,0.56526 c 0.80521,0.38228 1.71399,0.56714 2.80742,0.57107 l 1.61679,0.006 0.15423,1.30229 c 0.32847,2.77338 2.46309,5.46575 4.93846,6.22882 1.58439,0.48842 2.80087,0.49138 4.41935,0.0107 z m -0.391,-4.63379 c 1.2049,-0.99318 1.46673,-2.01961 0.84787,-3.32377 -1.215,-2.56042 -4.31519,-2.46129 -5.40629,0.17285 -0.75351,1.81914 0.65619,3.94703 2.61485,3.94703 0.69666,0 1.25542,-0.22888 1.94357,-0.79611 z m 22.0808,-12.71826 c -0.0925,-0.88446 -0.34181,-2.28344 -0.55415,-3.10885 -0.21234,-0.82541 -0.45519,-1.90002 -0.53967,-2.38804 -0.16887,-0.97547 -1.09281,-2.937268 -1.39855,-2.969518 -0.70636,-0.0745 -2.39089,-0.22428 -6.80764,-0.60528 -2.7649,-0.2385 -5.35451,-0.50242 -5.75469,-0.58648 -0.8857,-0.18605 -0.97008,0.27082 -0.13229,0.71631 0.32742,0.17411 2.85899,2.552338 5.62572,5.284968 l 5.0304,4.96841 1.45189,0.0993 c 0.79854,0.0547 1.8558,0.12138 2.34947,0.1483 l 0.89759,0.0489 z m -10.61903,-0.31011 c -1.47223,-1.68291 -5.00726,-5.04441 -7.54452,-7.1742 -1.23693,-1.038278 -2.39062,-2.020938 -2.56377,-2.183688 -0.17314,-0.16275 -1.2447,-0.43191 -2.38125,-0.59813 -6.07492,-0.8885 -21.57604,-3.27729 -23.57182,-3.63253 -3.89643,-0.693536 -7.0144,-1.188116 -8.22713,-1.305016 -0.63663,-0.0614 -1.29147,-0.22158 -1.45521,-0.35604 -0.43933,-0.36079 -4.83179,-1.18191 -5.32008,-0.99453 -0.35972,0.13803 -1.98907,3.295056 -1.98907,3.854006 0,0.2251 6.08993,2.26156 10.71562,3.58327 1.74625,0.49896 5.19906,1.507778 7.67292,2.241818 10.3285,3.06467 30.45814,7.4838 34.88964,7.65946 l 0.75839,0.0301 z m -9.14993,-4.20066 c -0.22196,-0.41472 -0.2239,-0.73209 -0.007,-1.20724 0.23768,-0.52165 0.45696,-0.62883 1.14953,-0.56185 0.92318,0.0893 1.16418,0.55319 0.87855,1.6912 -0.21507,0.8569 -1.57569,0.90935 -2.02067,0.0779 z m -12.81706,-1.79599 c -2.67099,-0.68497 -5.50635,-1.6932 -6.03185,-2.144868 -0.4379,-0.37639 2.94018,0.32433 5.18181,1.074848 2.20305,0.73762 4.59772,1.81816 4.02772,1.81742 -0.14552,-1.9e-4 -1.57548,-0.33652 -3.17768,-0.7474 z m 28.90055,-5.695808 c 0.24097,-0.18083 -4.06099,-6.117956 -5.68003,-7.838998 -5.70387,-6.063252 -11.4356,-9.36412 -19.1168,-11.009259 -3.11612,-0.667401 -10.34993,-0.674785 -13.41217,-0.01369 -3.89626,0.841151 -9.94153,3.167062 -9.05802,3.485069 0.20762,0.07473 2.46108,0.729017 5.00769,1.453977 9.32159,2.653633 14.99964,5.202467 21.77696,9.775525 5.33592,3.600456 4.54451,3.294046 9.86097,3.817846 2.60825,0.25698 5.21853,0.4973 5.80061,0.53406 0.95523,0.0603 4.67837,-0.0976 4.82079,-0.20453 z M 157.6276,92.566966 c -1.04746,-0.73367 -0.61992,-2.23395 0.6366,-2.23395 1.26911,0 1.96245,1.80837 0.90942,2.37194 -0.67892,0.36334 -0.85237,0.34786 -1.54602,-0.13799 z m -5.35054,1.907666 c 0,-0.0504 -1.59005,-1.000446 -3.53345,-2.111106 -6.33192,-3.61876 -10.35278,-5.233312 -19.51695,-7.836921 -6.94568,-1.973319 -7.09757,-1.99211 -7.60219,-0.940469 -0.20948,0.436563 -0.82423,1.280269 -1.36611,1.874902 -1.07855,1.183553 -1.97813,2.462778 -1.81766,2.584762 0.0561,0.04264 1.17355,0.329167 2.48324,0.63673 1.30969,0.307564 3.5877,0.861027 5.06226,1.229916 3.39748,0.84996 8.54672,1.80175 15.15495,2.80125 2.85053,0.43114 6.31388,1.01433 7.69633,1.29597 2.51381,0.512126 3.43958,0.637276 3.43958,0.464966 z m -78.898736,-6.191058 -1.77271,-0.0908 -5.53049,-5.7429 c -3.04177,-3.158595 -6.19317,-6.457275 -7.0031,-7.3304 l -1.47261,-1.5875 5.46852,-0.08145 5.46852,-0.08145 2.91477,3.058017 2.91477,3.058017 h 5.8365 5.83651 l 0.6214,-0.661458 c 0.34178,-0.363802 0.75896,-0.661459 0.92707,-0.661459 0.36636,0 6.25645,1.598209 9.34876,2.536677 l 2.20603,0.669498 -3.42227,2.326485 c -1.88224,1.279567 -4.06824,2.814205 -4.85777,3.410308 l -1.43552,1.083822 -7.13783,0.0927 c -3.92581,0.05099 -7.93556,0.05184 -8.91055,0.0019 z"
       id="path1-07"
       sodipodi:nodetypes="sssssscssscccsscscccssscccccsscccccccsscccccssssscssssscsssscccssssscsssssssssssssssccssssssssssssasccssssssccssscccsssssssssscssssscsssssssscsscsssssssssssssssssssssssscssssssscssssssscccsssssssssssssssscsssscscssssssscsscccscssccsscssscsssscsssssssscssssssssscssssssscssssscsssssscscscssssssssssssscssscsccssssssscccssssssssssssssssssssssssssssccccccccscscsssssssssssscsccssssscssscssssssscssccscsssssssssscscsssccsssssssssssssssssssscsssssssssccsscccccccssscsscsscc"
       inkscape:path-effect="#path-effect9"
       inkscape:original-d="m 108.05932,203.72371 c -3.40825,-1.23026 -6.76165,-2.32759 -10.345871,-4.36193 -10.22265,-5.8022 -19.243205,-12.48049 -25.964885,-22.4722 -2.44337,-3.63205 -6.056,-10.71886 -7.57237,-14.85453 -3.36813,-9.18609 -5.12595,-21.40296 -4.49218,-31.22084 0.12681,-1.96453 0.23572,-3.95882 0.24202,-4.43177 l 0.0114,-0.85989 h -1.55509 c -1.13262,0 -1.65376,0.12024 -1.91823,0.4426 -0.19972,0.24343 -1.6614,1.61265 -3.24818,3.04271 l -2.88505,2.6001 h -5.40144 -5.40144 l 4.31774,-4.18867 c 2.37476,-2.30376 5.5679,-5.39124 7.09587,-6.86105 l 2.77812,-2.67238 1.87518,-0.17746 c 1.03135,-0.0976 4.30557,-0.13552 7.27604,-0.0843 2.97048,0.0513 9.93383,0.0634 15.47413,0.0271 l 10.07327,-0.0661 7.38923,-4.39746 c 4.06408,-2.41861 7.563566,-4.56173 7.776656,-4.7625 0.32964,-0.3106 -1.80574,-0.36504 -14.318436,-0.36504 h -14.70586 l -1.29198,2.77802 -1.29198,2.77801 -4.6897,1.1e-4 -4.6897,1.1e-4 0.82135,-2.18281 c 0.45175,-1.20055 0.87935,-2.45071 0.95024,-2.77813 l 0.12887,-0.59531 h -5.99407 -5.99407 l -3.23104,2.90817 -3.23105,2.90818 -5.55625,-0.006 -5.55624,-0.006 3.1677,-2.96864 c 1.74224,-1.63276 4.95692,-4.66386 7.14375,-6.7358 l 3.97604,-3.76715 9.45363,-0.003 9.45363,-0.003 2.12712,-3.174998 2.12711,-3.174996 h 5.71572 c 5.40394,0 5.69612,0.0253 5.35662,0.463016 -0.19749,0.25466 -0.96482,1.17739 -1.70516,2.05052 -1.62518,1.91665 -2.49846,3.15628 -2.49846,3.546568 0,0.20651 4.0677,0.28989 14.14277,0.28989 h 14.142766 l 0.27555,-0.992188 c 0.15155,-0.5457 0.27621,-1.16033 0.27702,-1.36584 0.003,-0.83423 1.98499,-6.127966 3.12018,-8.334996 6.27231,-12.194569 19.73666,-19.195484 34.42493,-17.899565 9.5945,0.846504 17.14863,4.068766 24.38312,10.400767 7.92137,6.933204 13.20449,18.111432 13.28726,28.113692 0.0145,1.74625 -0.11144,3.64341 -0.27975,4.21589 -0.28502,0.96949 -0.23396,1.20092 0.74444,3.3738 0.57775,1.2831 1.05028,2.42205 1.05008,2.53099 -2e-4,0.10894 -1.0716,1.80542 -2.38088,3.76995 l -2.38051,3.57187 -3.7e-4,4.22048 -3.7e-4,4.22047 -3.75897,6.36286 c -6.24274,10.56716 -8.39455,13.93552 -10.31805,16.15146 -1.97427,2.27443 -3.04777,3.05273 -5.81659,4.21712 -2.0564,0.8648 -2.26127,0.83995 -5.47687,-0.66432 -1.22069,-0.57105 -2.36398,-1.03827 -2.54065,-1.03827 -0.33081,0 -2.78221,2.95669 -2.77841,3.3511 0.002,0.24051 5.53296,3.81062 16.26975,10.50236 3.78354,2.35811 7.12579,4.44784 7.42722,4.64384 0.50353,0.32743 0.6573,0.24076 1.89274,-1.06681 7.60811,-8.05229 13.32356,-19.31427 15.65979,-30.8568 1.2049,-5.95298 1.43454,-8.70768 1.27344,-15.27587 -0.10478,-4.27181 -0.29665,-6.70167 -0.71927,-9.10874 -0.61853,-3.52292 -2.05325,-8.59019 -3.04089,-10.74013 -0.45607,-0.99276 -0.64198,-1.98322 -0.74496,-3.96875 -0.3179,-6.12913 -2.71991,-13.955628 -5.91158,-19.261773 -2.51498,-4.181154 -6.79674,-9.068081 -10.63095,-12.133478 -4.16733,-3.331721 -10.28506,-6.4452 -15.96721,-8.126149 -4.22367,-1.249486 -7.5999,-1.694335 -12.78625,-1.684701 -3.76754,0.007 -5.03495,0.118433 -7.8052,0.686255 -5.31925,1.090292 -9.57696,2.645867 -13.47824,4.924337 -1.23164,0.719319 -2.14332,1.067394 -2.79572,1.067394 -1.96727,0 -8.38895,2.00418 -11.58922,3.616945 l -1.27256,0.641616 -3.75452,-1.564005 c -2.064986,-0.860203 -4.617726,-1.841744 -5.672756,-2.181203 -1.05502,-0.339458 -1.91823,-0.701782 -1.91823,-0.805164 0,-0.262993 4.68393,-2.637062 7.540626,-3.822002 6.17413,-2.560986 14.45786,-4.840626 20.76978,-5.715734 1.58385,-0.219591 5.1069,-0.344042 9.525,-0.33647 5.85188,0.01003 7.62407,0.107374 10.71563,0.588594 12.00309,1.868358 22.0992,6.042605 31.32776,12.952491 3.71878,2.784439 9.94463,8.948675 12.92091,12.793043 8.0945,10.455374 13.1337,23.169334 14.37035,36.256484 0.41665,4.40933 0.19109,15.52209 -0.39129,19.2778 -0.88857,5.73037 -3.36678,14.26108 -5.57252,19.18229 -4.4496,9.92746 -11.80994,18.28453 -19.5823,25.76498 -3.10922,2.99244 -7.98631,5.98414 -10.59908,7.43349 l -6.69284,3.31931 c -10.16908,4.4184 -21.09137,6.05414 -29.33735,5.61494 l -7.8783,-10.04658 c -1.03948,-1.32557 -2.74322,-3.51598 -3.83663,-4.82864 -1.0934,-1.31267 -3.65158,-4.47026 -5.68485,-7.01687 -2.03327,-2.54662 -3.95164,-4.92787 -4.26304,-5.29167 -0.31141,-0.3638 -3.04039,-3.63802 -6.06441,-7.27604 -4.440506,-5.34212 -9.905676,-11.71528 -11.609096,-13.53785 -0.21713,-0.23232 -0.83723,-0.0308 -2.50649,0.81439 l -2.21798,1.12307 5.57982,7.38769 c 3.0689,4.06324 6.85926,9.05457 8.42303,11.09187 4.258666,5.54823 13.922306,18.41746 14.453846,19.24843 l 0.46542,0.72761 c 1.98771,4.34105 1.71651,4.07857 1.17903,5.04061 -0.62861,1.12716 -2.60889,0.3132 -3.14118,0.1917 -1.56383,-0.53844 -2.93432,-0.8603 -3.63863,-1.11453 z m -4.03869,-10.45981 c -0.0165,-0.28664 -0.25497,-0.79266 -0.52991,-1.12448 -1.05773,-1.27656 -1.04038,-1.38649 0.0369,-0.23367 2.19239,2.34618 1.11318,0.36608 -1.72762,-3.16976 -2.041326,-2.54078 -3.000286,-3.53842 -3.373426,-3.50955 -0.50162,0.0388 -1.98812,-1.56357 -3.91581,-4.22112 -0.67176,-0.92609 -0.71601,-1.11083 -0.43091,-1.79912 0.29806,-0.71958 0.24457,-0.853 -0.8644,-2.15607 -0.65017,-0.76397 -1.9951,-2.4606 -2.98875,-3.77028 -2.5428,-3.3516 -6.93251,-8.84122 -7.85027,-9.8173 l -0.77238,-0.82146 -3.15656,1.61521 c -1.73611,0.88837 -3.15827,1.69382 -3.16035,1.78989 -0.002,0.0961 0.50084,0.81045 1.11762,1.5875 0.61678,0.77705 1.75092,2.28752 2.52033,3.35659 3.42614,4.76056 11.91054,13.72022 15.95618,16.84999 1.89598,1.46676 6.839336,4.88466 7.075846,4.89233 0.0998,0.003 0.47909,0.23872 0.84289,0.52329 0.84713,0.66263 1.25851,0.66533 1.22065,0.008 z m 26.46705,-1.26478 c -0.34614,-0.54571 -1.92521,-2.97433 -3.50904,-5.39695 -1.58384,-2.42261 -3.23282,-4.98246 -3.66441,-5.68854 -0.4316,-0.70608 -1.36895,-2.23628 -2.08301,-3.40045 -0.71405,-1.16417 -1.89905,-3.18823 -2.63331,-4.49792 -4.3342,-7.73077 -13.42187,-22.16722 -14.53644,-23.09223 -0.26372,-0.21887 -0.75555,0.11221 -2.0866,1.40464 l -1.74155,1.691 1.21719,0.15643 c 1.28806,0.16554 2.91413,0.77673 2.97074,1.11661 0.0186,0.1115 0.0837,0.44085 0.14466,0.73189 0.061,0.29104 0.17603,1.14957 0.25565,1.90784 0.13015,1.23951 0.0755,1.44289 -0.54153,2.01472 -0.37746,0.34982 -0.68629,0.71925 -0.68629,0.82095 0,0.35575 11.691,15.25544 14.13201,18.01065 1.0314,1.16417 1.9348,2.1762 2.00756,2.24896 0.35396,0.35395 2.38006,2.68412 3.43959,3.95577 4.63677,5.5651 7.64151,9.00881 7.86043,9.00881 0.046,0 -0.1995,-0.44648 -0.54565,-0.99218 z m 3.04694,-10.83664 c -0.72104,-1.29856 -2.17278,-4.02009 -3.22608,-6.04784 -1.0533,-2.02776 -2.09003,-3.96939 -2.30385,-4.31473 -0.21382,-0.34534 -0.26346,-0.55044 -0.11032,-0.45579 0.34473,0.21305 -1.19671,-3.28426 -4.68978,-10.64045 -1.47264,-3.10129 -2.67753,-5.70876 -2.67753,-5.79438 0,-0.0856 0.37467,0.36821 0.83261,1.0085 0.87835,1.22815 1.96096,2.45766 5.23385,5.944 1.10184,1.17369 2.53912,2.72677 3.19396,3.45127 0.65484,0.72451 2.17092,2.39773 3.36905,3.71826 1.19813,1.32054 2.42617,2.6845 2.72898,3.03102 1.05159,1.20342 0.36394,0.0703 -3.31991,-5.47052 -6.86464,-10.32503 -9.3774,-14.37366 -11.13894,-17.9474 -0.79692,-1.61674 -1.20431,-2.64188 -0.90533,-2.27807 1.00984,1.22874 6.48736,7.06704 6.56922,7.00188 0.10304,-0.082 -1.97685,-4.00401 -2.5907,-4.88522 -0.25343,-0.3638 -1.80648,-2.92364 -3.45122,-5.68855 -1.64475,-2.76489 -3.25648,-5.38427 -3.58162,-5.82083 -0.62536,-0.83964 -1.11634,-1.68814 -2.8324,-4.89479 -0.58408,-1.09141 -1.14056,-2.07396 -1.23663,-2.18344 -0.0961,-0.10949 -0.73762,1.44709 -1.42567,3.45906 l -1.25099,3.65813 1.59558,4.37226 c 0.87757,2.40475 1.59558,4.49341 1.59558,4.64145 0,0.14804 0.64641,1.96736 1.43646,4.04294 0.79006,2.07558 1.34507,3.6691 1.23338,3.54117 -0.4154,-0.47578 -3.14528,-4.52335 -4.14664,-6.14819 -0.57021,-0.92524 -1.24192,-1.99681 -1.4927,-2.38126 -0.25079,-0.38445 -0.76095,-1.26878 -1.13371,-1.96519 l -0.67774,-1.26618 -1.04032,2.05993 -1.04031,2.05995 1.47097,2.64583 c 0.80903,1.45521 1.59645,2.7649 1.74981,2.91042 0.19188,0.18205 0.21273,0.14867 0.0669,-0.10703 -0.13221,-0.23176 -0.10948,-0.30825 0.0604,-0.20326 0.14982,0.0926 0.27372,0.43841 0.27533,0.76849 0.002,0.33007 0.53538,1.4931 1.18615,2.58451 1.80776,3.0318 7.48075,11.45876 9.67712,14.37492 3.70595,4.92045 12.95697,15.86394 13.2264,15.64616 0.0449,-0.0363 -0.50828,-1.12847 -1.22932,-2.42703 z M 121.5854,167.19447 c 0,-0.0728 0.0595,-0.13229 0.13229,-0.13229 0.0728,0 0.13229,0.0595 0.13229,0.13229 0,0.0728 -0.0595,0.13229 -0.13229,0.13229 -0.0728,0 -0.13229,-0.0595 -0.13229,-0.13229 z M 85.241144,155.00084 c 11.26585,-5.69196 11.31241,-5.71889 13.72674,-7.9393 l 2.422536,-2.22796 2.17502,-4.48365 c 1.38318,-2.85131 2.70215,-6.10162 3.62294,-8.92788 1.80271,-5.53327 3.36712,-11.3726 3.14367,-11.73414 -0.0928,-0.15017 -0.63486,-0.45954 -1.20457,-0.68749 l -1.03583,-0.41446 v -1.85166 c 0,-1.48689 -0.0737,-1.82339 -0.374,-1.70814 -0.20571,0.0789 -1.78328,1.12446 -3.50573,2.32338 -1.72245,1.19893 -3.4975,2.427 -3.94455,2.72906 -0.447046,0.30206 -1.174996,1.14451 -1.617666,1.87211 -4.1733,6.85955 -8.36057,13.61797 -9.5445,15.40518 -1.26408,1.90821 -1.62533,2.26187 -2.93533,2.87363 -1.22818,0.57355 -10.99496,4.85494 -12.14332,5.32317 -0.25692,0.10476 -0.33073,-0.87048 -0.33073,-4.3695 v -4.50434 l 1.25677,-0.46541 c 0.69122,-0.25598 2.47728,-0.95918 3.96901,-1.56267 l 2.71223,-1.09725 2.78701,-3.94932 2.78701,-3.94932 -8.65734,-0.0698 c -4.76153,-0.0384 -8.74766,0.0211 -8.85807,0.1323 -0.48095,0.48426 -0.82547,6.45988 -0.68143,11.81942 0.20962,7.8 0.91838,11.95281 3.28896,19.27082 0.69496,2.14535 1.34757,3.90152 1.45026,3.90261 0.10269,0.001 5.2736,-2.56812 11.49091,-5.70936 z m 73.856486,3.35149 c 0.83259,-0.4248 1.74281,-0.94431 2.0227,-1.15447 0.49129,-0.36891 0.48215,-0.39914 -0.26459,-0.87439 -0.42541,-0.27074 -1.07113,-0.76074 -1.43493,-1.08888 -0.80252,-0.72386 -9.92909,-6.89225 -13.69859,-9.25848 -1.49597,-0.93907 -2.85044,-1.66391 -3.00992,-1.61075 -0.15949,0.0532 1.15842,1.32396 2.92867,2.82398 1.77025,1.50003 3.40528,3.01217 3.63339,3.36031 0.22811,0.34814 0.51943,0.56829 0.64736,0.48922 0.12794,-0.0791 0.17426,0.0112 0.10293,0.20071 -0.11886,0.31573 1.54522,2.40605 1.76127,2.21241 0.0518,-0.0465 0.35326,0.31276 0.66981,0.79829 0.56057,0.85983 0.51619,0.84352 -1.70642,-0.62713 -2.21741,-1.46722 -12.72563,-8.87569 -16.7285,-11.79388 -3.50564,-2.5557 -11.46821,-7.83708 -11.60679,-7.6985 -0.33562,0.33562 7.91299,8.59161 11.07763,11.08754 4.3696,3.44626 12.00722,8.19823 17.98931,11.19257 2.98189,1.49259 5.57489,2.7138 5.76223,2.7138 0.18735,0 1.02184,-0.34756 1.85444,-0.77235 z m 6.31426,-6.04749 c 0.45744,-0.68748 1.51746,-2.38105 2.3556,-3.76349 0.83814,-1.38245 1.6854,-2.70277 1.88279,-2.93404 0.32605,-0.38201 -0.26498,-0.43809 -6.45663,-0.61272 -5.63091,-0.15881 -10.44995,-0.51682 -8.79591,-0.65346 1.05801,-0.0874 14.20113,-2.18353 14.54807,-2.32019 0.21828,-0.086 0.93266,-0.20578 1.5875,-0.26621 0.71217,-0.0657 1.32842,-0.29246 1.53353,-0.56424 0.31661,-0.41952 0.0934,-0.4813 -2.91042,-0.80566 -4.98739,-0.53854 -4.99643,-0.57511 -0.3429,-1.38794 2.32833,-0.40668 4.44051,-0.74727 4.69372,-0.75687 0.61318,-0.0232 2.05315,-3.20096 2.05315,-4.53092 0,-1.16651 0.26825,-1.06981 -4.7625,-1.71687 -4.84755,-0.62351 -10.68643,-1.57347 -15.34583,-2.49671 -4.13965,-0.82025 -11.95636,-2.76007 -12.56368,-3.11784 -0.43032,-0.2535 -2.43553,-2.58949 -2.98037,-3.47201 -0.23442,-0.37971 -0.55361,-0.80953 -0.70931,-0.95516 -0.40017,-0.37428 -3.35239,-4.06101 -4.08598,-5.10257 l -0.61237,-0.86944 1.1493,-1.46587 c 3.44786,-4.39761 4.43955,-5.77875 4.25939,-5.93214 -0.32323,-0.27521 -4.10494,-1.44885 -8.93094,-2.7717 -5.99306,-1.64275 -12.95801,-3.68825 -15.8149,-4.6446 -2.68567,-0.89904 -3.26655,-0.95254 -3.40888,-0.314 -0.0568,0.25466 -0.0599,1.81119 -0.007,3.45894 0.089,2.76882 0.12956,2.96618 0.53537,2.60357 2.05005,-1.83181 5.05826,1.43665 3.17111,3.44544 -0.66345,0.70621 -1.44256,0.77131 -2.74051,0.22899 -0.50465,-0.21086 -0.91738,-0.35968 -0.91718,-0.33073 2e-4,0.029 0.17831,1.0638 0.3958,2.29965 0.3037,1.72576 0.53378,2.35505 0.99182,2.71277 1.03898,0.8114 1.62946,0.8073 3.37364,-0.0235 1.28543,-0.61224 1.78768,-0.73313 2.22262,-0.53496 0.45224,0.20606 1.20696,-0.051 3.86644,-1.31663 6.54425,-3.1145 8.32397,-3.78183 9.85144,-3.69393 l 1.39058,0.08 -0.88908,0.52917 c -0.489,0.29104 -1.2629,0.78497 -1.71979,1.09761 -1.23689,0.8464 -8.15994,4.83993 -10.39295,5.99512 -1.07092,0.55402 -1.94714,1.11314 -1.94714,1.24248 0,0.2249 1.84088,1.14867 5.55625,2.78818 0.94589,0.4174 3.02948,1.54902 4.63021,2.51471 1.60073,0.96568 4.10104,2.44943 5.55625,3.29721 2.41081,1.4045 11.02062,7.01252 11.63447,7.57812 0.74383,0.68539 -7.30737,-2.62987 -13.10867,-5.39779 -1.97498,-0.9423 -4.05858,-1.86636 -4.63021,-2.05346 -0.57164,-0.1871 -2.03267,-0.86696 -3.24674,-1.5108 -1.21407,-0.64383 -2.26135,-1.11666 -2.32729,-1.05072 -0.0659,0.0659 0.66758,0.68179 1.63003,1.36858 0.96244,0.68679 1.82121,1.1774 1.90836,1.09025 0.43311,0.006 0.83532,0.12613 1.35238,0.37162 0.9002,0.43607 1.7094,0.79284 1.79822,0.79284 0.0888,0 0.86156,0.35575 1.7172,0.79056 0.85564,0.4348 1.64427,0.80625 1.75252,0.82544 0.28509,0.0505 1.12029,0.39049 2.18119,0.88778 l 0.92604,0.43409 -0.95081,-0.12267 c -0.52294,-0.0675 -2.18982,-0.7086 -3.70416,-1.42474 -3.37052,-1.59394 -4.45132,-2.02965 -4.61892,-1.86205 -0.0708,0.0708 0.27301,0.41429 0.7641,0.76321 0.4911,0.34894 2.79242,2.06317 5.11405,3.80943 2.32163,1.74625 5.04746,3.7484 6.0574,4.4492 1.00994,0.70082 3.08641,2.15202 4.61438,3.22492 6.43305,4.51712 9.34564,6.48019 13.09688,8.82725 3.56197,2.22864 7.45317,4.47579 7.8052,4.50746 0.0728,0.007 0.50656,-0.55057 0.964,-1.23804 z m -15.16805,-11.44073 c -0.72747,-0.29 -1.14178,-1.05018 -1.14178,-2.09496 0,-1.08817 0.8213,-1.86948 1.96517,-1.86948 1.72249,0 2.6535,2.22332 1.40827,3.36305 -0.75802,0.6938 -1.49897,0.89347 -2.23166,0.60139 z m 6.12224,-3.02637 c -0.79339,-0.79339 -0.8212,-1.4421 -0.10106,-2.3576 1.08971,-1.38534 3.15579,-0.64623 3.15579,1.12894 0,1.81512 -1.76026,2.52313 -3.05473,1.22866 z m -32.60515,-28.33745 c -0.69631,-0.48772 -0.77547,-1.58402 -0.17616,-2.43966 0.51207,-0.73107 0.91125,-0.73986 1.8014,-0.0397 0.89022,0.70024 0.94281,1.89538 0.10911,2.47933 -0.32343,0.22653 -0.71365,0.41188 -0.86717,0.41188 -0.15353,0 -0.54375,-0.18535 -0.86718,-0.41188 z m 18.46197,34.14625 c 0,-0.0728 -0.0595,-0.13229 -0.1323,-0.13229 -0.0728,0 -0.13229,0.0595 -0.13229,0.13229 0,0.0728 0.0595,0.1323 0.13229,0.1323 0.0728,0 0.1323,-0.0595 0.1323,-0.1323 z m -0.52917,-0.26458 c 0,-0.0728 -0.0595,-0.13229 -0.13229,-0.13229 -0.0728,0 -0.13229,0.0595 -0.13229,0.13229 0,0.0728 0.0595,0.13229 0.13229,0.13229 0.0728,0 0.13229,-0.0595 0.13229,-0.13229 z m 14.73,-17.99044 c 1.63356,-0.48511 3.51734,-2.0865 4.17807,-3.55173 l 0.48688,-1.0797 h 8.82336 8.82335 v -0.79375 -0.79375 h -8.73125 -8.73125 l -0.003,-0.99219 c -0.006,-2.31868 -2.90204,-6.15156 -4.64792,-6.15156 -0.95081,0 -0.8904,1.17966 0.0864,1.68786 1.44866,0.75365 2.56371,2.45108 2.87052,4.36978 0.16235,1.01524 0.13263,1.08637 -0.45545,1.09016 -0.34602,0.002 -0.7907,0.10642 -0.98817,0.23155 -0.51226,0.32458 -0.12535,1.3519 0.50916,1.3519 0.66563,0 0.64531,0.17128 -0.14293,1.20471 -1.45709,1.91035 -4.75842,2.5674 -6.87535,1.36838 -1.66219,-0.94146 -2.61144,-2.51861 -2.74106,-4.55417 -0.0948,-1.48906 -0.0176,-1.86088 0.60816,-2.92867 0.39422,-0.67268 1.12222,-1.46229 1.61777,-1.75467 0.69575,-0.4105 0.901,-0.70647 0.901,-1.29922 0,-0.90497 -0.21291,-0.93971 -1.55695,-0.25403 -1.18562,0.60485 -2.60041,2.13429 -2.83354,3.06314 -0.15874,0.63247 -0.24885,0.65776 -2.45121,0.68791 -1.25754,0.0172 -2.64361,0.11743 -3.08018,0.22268 l -0.79375,0.19138 1.19063,0.56526 c 0.80521,0.38228 1.71399,0.56714 2.80742,0.57107 l 1.61679,0.006 0.15423,1.30229 c 0.32847,2.77338 2.46309,5.46575 4.93846,6.22882 1.58439,0.48842 2.80087,0.49138 4.41935,0.0107 z m -0.391,-4.63379 c 1.2049,-0.99318 1.46673,-2.01961 0.84787,-3.32377 -1.215,-2.56042 -4.31519,-2.46129 -5.40629,0.17285 -0.75351,1.81914 0.65619,3.94703 2.61485,3.94703 0.69666,0 1.25542,-0.22888 1.94357,-0.79611 z m 22.0808,-12.71826 c -0.0925,-0.88446 -0.34181,-2.28344 -0.55415,-3.10885 -0.21234,-0.82541 -0.45519,-1.90002 -0.53967,-2.38804 -0.16887,-0.97547 -1.09281,-2.937268 -1.39855,-2.969518 -0.70636,-0.0745 -2.39089,-0.22428 -6.80764,-0.60528 -2.7649,-0.2385 -5.35451,-0.50242 -5.75469,-0.58648 -0.8857,-0.18605 -0.97008,0.27082 -0.13229,0.71631 0.32742,0.17411 2.85899,2.552338 5.62572,5.284968 l 5.0304,4.96841 1.45189,0.0993 c 0.79854,0.0547 1.8558,0.12138 2.34947,0.1483 l 0.89759,0.0489 z m -10.61903,-0.31011 c -1.47223,-1.68291 -5.00726,-5.04441 -7.54452,-7.1742 -1.23693,-1.038278 -2.39062,-2.020938 -2.56377,-2.183688 -0.17314,-0.16275 -1.2447,-0.43191 -2.38125,-0.59813 -6.07492,-0.8885 -21.57604,-3.27729 -23.57182,-3.63253 -3.89643,-0.693536 -7.0144,-1.188116 -8.22713,-1.305016 -0.63663,-0.0614 -1.29147,-0.22158 -1.45521,-0.35604 -0.43933,-0.36079 -4.83179,-1.18191 -5.32008,-0.99453 -0.35972,0.13803 -1.98907,3.295056 -1.98907,3.854006 0,0.2251 6.08993,2.26156 10.71562,3.58327 1.74625,0.49896 5.19906,1.507778 7.67292,2.241818 10.3285,3.06467 30.45814,7.4838 34.88964,7.65946 l 0.75839,0.0301 z m -9.14993,-4.20066 c -0.22196,-0.41472 -0.2239,-0.73209 -0.007,-1.20724 0.23768,-0.52165 0.45696,-0.62883 1.14953,-0.56185 0.92318,0.0893 1.16418,0.55319 0.87855,1.6912 -0.21507,0.8569 -1.57569,0.90935 -2.02067,0.0779 z m -12.81706,-1.79599 c -2.67099,-0.68497 -5.50635,-1.6932 -6.03185,-2.144868 -0.4379,-0.37639 2.94018,0.32433 5.18181,1.074848 2.20305,0.73762 4.59772,1.81816 4.02772,1.81742 -0.14552,-1.9e-4 -1.57548,-0.33652 -3.17768,-0.7474 z m 28.90055,-5.695808 c 0.24097,-0.18083 -4.06099,-6.117956 -5.68003,-7.838998 -5.70387,-6.063252 -11.4356,-9.36412 -19.1168,-11.009259 -3.11612,-0.667401 -10.34993,-0.674785 -13.41217,-0.01369 -3.89626,0.841151 -9.94153,3.167062 -9.05802,3.485069 0.20762,0.07473 2.46108,0.729017 5.00769,1.453977 9.32159,2.653633 14.99964,5.202467 21.77696,9.775525 5.33592,3.600456 4.54451,3.294046 9.86097,3.817846 2.60825,0.25698 5.21853,0.4973 5.80061,0.53406 0.95523,0.0603 4.67837,-0.0976 4.82079,-0.20453 z M 157.6276,92.566966 c -1.04746,-0.73367 -0.61992,-2.23395 0.6366,-2.23395 1.26911,0 1.96245,1.80837 0.90942,2.37194 -0.67892,0.36334 -0.85237,0.34786 -1.54602,-0.13799 z m -5.35054,1.907666 c 0,-0.0504 -1.59005,-1.000446 -3.53345,-2.111106 -6.33192,-3.61876 -10.35278,-5.233312 -19.51695,-7.836921 -6.94568,-1.973319 -7.09757,-1.99211 -7.60219,-0.940469 -0.20948,0.436563 -0.82423,1.280269 -1.36611,1.874902 -1.07855,1.183553 -1.97813,2.462778 -1.81766,2.584762 0.0561,0.04264 1.17355,0.329167 2.48324,0.63673 1.30969,0.307564 3.5877,0.861027 5.06226,1.229916 3.39748,0.84996 8.54672,1.80175 15.15495,2.80125 2.85053,0.43114 6.31388,1.01433 7.69633,1.29597 2.51381,0.512126 3.43958,0.637276 3.43958,0.464966 z m -78.898736,-6.191058 -1.77271,-0.0908 -5.53049,-5.7429 c -3.04177,-3.158595 -6.19317,-6.457275 -7.0031,-7.3304 l -1.47261,-1.5875 5.46852,-0.08145 5.46852,-0.08145 2.91477,3.058017 2.91477,3.058017 h 5.8365 5.83651 l 0.6214,-0.661458 c 0.34178,-0.363802 0.75896,-0.661459 0.92707,-0.661459 0.36636,0 6.25645,1.598209 9.34876,2.536677 l 2.20603,0.669498 -3.42227,2.326485 c -1.88224,1.279567 -4.06824,2.814205 -4.85777,3.410308 l -1.43552,1.083822 -7.13783,0.0927 c -3.92581,0.05099 -7.93556,0.05184 -8.91055,0.0019 z"
       transform="translate(-34.404582,-63.586013)" /></g></svg>
